<svg width="15" height="17" viewBox="0 0 15 17" fill="none" xmlns="http://www.w3.org/2000/svg">
<path d="M14.4062 2.20867C14.4021 1.77183 14.2258 1.35424 13.9158 1.04645C13.6058 0.738664 13.1869 0.565481 12.7501 0.564453L2.24195 0.53125C1.80554 0.531336 1.38697 0.704467 1.078 1.01268C0.769036 1.3209 0.594893 1.73906 0.59375 2.17547V13.0156C0.59375 13.9221 1.33352 14.6094 2.24195 14.6094H11.2188L10.7871 13.1484L14.4062 16.4688V2.20867ZM9.77939 10.9507C9.77939 10.9507 9.48986 10.6057 9.24814 10.3092C10.302 10.0124 10.7041 9.36328 10.7041 9.36328C10.4147 9.55529 10.1045 9.71401 9.77939 9.83643C9.40408 9.99226 9.01331 10.1079 8.61363 10.1814C7.92498 10.3079 7.2188 10.3052 6.53113 10.1734C6.12663 10.0983 5.73073 9.98263 5.34943 9.82812C5.14772 9.75086 4.95158 9.65978 4.7624 9.55553C4.73816 9.53959 4.71426 9.53162 4.69002 9.51535C4.67375 9.50738 4.66578 9.49941 4.65682 9.49941C4.51205 9.41906 4.4317 9.36295 4.4317 9.36295C4.4317 9.36295 4.81752 9.9968 5.83885 10.3013C5.59746 10.6061 5.29996 10.959 5.29996 10.959C3.52326 10.9029 2.84791 9.74811 2.84791 9.74811C2.84791 7.18947 4.0057 5.11229 4.0057 5.11229C5.1635 4.25398 6.25688 4.27822 6.25688 4.27822L6.33723 4.37451C4.8899 4.78357 4.23082 5.41709 4.23082 5.41709C4.23082 5.41709 4.40746 5.3208 4.70496 5.1923C5.56525 4.81545 6.24891 4.71916 6.53113 4.68728C6.57618 4.67792 6.62195 4.67248 6.66793 4.67102C7.20669 4.60111 7.75187 4.59576 8.29189 4.65508C9.13982 4.75248 9.9613 5.01113 10.7121 5.41709C10.7121 5.41709 10.0769 4.81445 8.70992 4.40605L8.82248 4.27789C8.82248 4.27789 9.92383 4.25365 11.074 5.11328C11.074 5.11328 12.2318 7.19047 12.2318 9.7491C12.2318 9.7398 11.5561 10.8946 9.77939 10.9507Z" fill="white"/>
</svg>
