<svg width="18" height="18" viewBox="0 0 18 18" fill="none" xmlns="http://www.w3.org/2000/svg">
<path fill-rule="evenodd" clip-rule="evenodd" d="M9.00069 0.753906C6.68315 0.753906 6.3923 0.76404 5.48207 0.805462C4.57362 0.847063 3.95352 0.990886 3.41094 1.20191C2.84969 1.41987 2.37359 1.71143 1.89928 2.18592C1.42461 2.66024 1.13305 3.13633 0.91438 3.6974C0.702822 4.24016 0.55882 4.86044 0.517931 5.76854C0.47722 6.67877 0.466553 6.96979 0.466553 9.28733C0.466553 11.6049 0.476864 11.8948 0.518109 12.8051C0.559887 13.7135 0.703711 14.3336 0.914557 14.8762C1.13269 15.4374 1.42425 15.9135 1.89875 16.3878C2.37288 16.8625 2.84898 17.1548 3.40987 17.3727C3.95281 17.5838 4.57308 17.7276 5.48136 17.7692C6.39159 17.8106 6.68226 17.8207 8.99962 17.8207C11.3173 17.8207 11.6073 17.8106 12.5175 17.7692C13.426 17.7276 14.0468 17.5838 14.5897 17.3727C15.1508 17.1548 15.6262 16.8625 16.1003 16.3878C16.575 15.9135 16.8665 15.4374 17.0852 14.8764C17.295 14.3336 17.439 13.7133 17.4817 12.8052C17.5226 11.895 17.5332 11.6049 17.5332 9.28733C17.5332 6.96979 17.5226 6.67895 17.4817 5.76871C17.439 4.86026 17.295 4.24016 17.0852 3.69758C16.8665 3.13633 16.575 2.66024 16.1003 2.18592C15.6256 1.71125 15.151 1.41969 14.5892 1.20191C14.0452 0.990886 13.4247 0.847063 12.5163 0.805462C11.606 0.76404 11.3163 0.753906 8.99802 0.753906H9.00069ZM8.23513 2.29168C8.46233 2.29132 8.71585 2.29168 9.00065 2.29168C11.2791 2.29168 11.5491 2.29985 12.4489 2.34074C13.2809 2.37879 13.7324 2.51781 14.0332 2.63461C14.4315 2.78928 14.7154 2.97417 15.0139 3.27284C15.3125 3.57151 15.4974 3.85596 15.6525 4.25419C15.7693 4.55463 15.9085 5.00619 15.9463 5.8382C15.9872 6.73777 15.9961 7.00799 15.9961 9.28535C15.9961 11.5627 15.9872 11.8329 15.9463 12.7325C15.9083 13.5645 15.7693 14.0161 15.6525 14.3165C15.4978 14.7147 15.3125 14.9983 15.0139 15.2968C14.7152 15.5955 14.4316 15.7804 14.0332 15.935C13.7328 16.0524 13.2809 16.191 12.4489 16.2291C11.5493 16.27 11.2791 16.2788 9.00065 16.2788C6.72205 16.2788 6.452 16.27 5.55244 16.2291C4.72043 16.1907 4.26887 16.0516 3.96789 15.9348C3.56966 15.7802 3.28521 15.5953 2.98654 15.2966C2.68787 14.9979 2.50298 14.7142 2.34796 14.3158C2.23116 14.0154 2.09196 13.5638 2.05409 12.7318C2.0132 11.8322 2.00502 11.562 2.00502 9.28322C2.00502 7.00444 2.0132 6.73563 2.05409 5.83607C2.09213 5.00406 2.23116 4.5525 2.34796 4.2517C2.50263 3.85347 2.68787 3.56902 2.98654 3.27035C3.28521 2.97168 3.56966 2.78679 3.96789 2.63177C4.26869 2.51443 4.72043 2.37577 5.55244 2.33754C6.33964 2.30199 6.64471 2.29132 8.23513 2.28954V2.29168ZM13.5557 3.70858C12.9904 3.70858 12.5317 4.16672 12.5317 4.73224C12.5317 5.29758 12.9904 5.75625 13.5557 5.75625C14.1211 5.75625 14.5797 5.29758 14.5797 4.73224C14.5797 4.1669 14.1211 3.70858 13.5557 3.70858ZM9.0007 4.90504C6.58059 4.90504 4.61843 6.86719 4.61843 9.2873C4.61843 11.7074 6.58059 13.6687 9.0007 13.6687C11.4208 13.6687 13.3823 11.7074 13.3823 9.2873C13.3823 6.86719 11.4208 4.90504 9.0007 4.90504ZM9.00067 6.44283C10.5715 6.44283 11.8451 7.71627 11.8451 9.2873C11.8451 10.8582 10.5715 12.1318 9.00067 12.1318C7.42963 12.1318 6.15619 10.8582 6.15619 9.2873C6.15619 7.71627 7.42963 6.44283 9.00067 6.44283Z" fill="white"/>
</svg>
