<svg width="15" height="15" viewBox="0 0 15 15" fill="none" xmlns="http://www.w3.org/2000/svg">
<path d="M7.5 0.0625C3.3928 0.0625 0.0625 3.3928 0.0625 7.5C0.0625 11.6072 3.3928 14.9375 7.5 14.9375C11.6072 14.9375 14.9375 11.6072 14.9375 7.5C14.9375 3.3928 11.6072 0.0625 7.5 0.0625ZM9.7899 11.0377C9.7899 11.0377 9.6046 11.5018 9.0929 11.2791L7.1974 9.8256L6.0329 8.9144L6.038 8.8719C6.038 8.8719 9.438 5.8153 9.5774 5.6861L9.6709 5.528C9.6794 5.3699 9.4193 5.528 9.4193 5.528L4.9143 8.3891L3.0375 7.7567C3.0375 7.7567 2.7485 7.6547 2.7213 7.432C2.6941 7.2093 3.046 7.0886 3.046 7.0886L10.5056 4.1629C10.5056 4.1629 11.1193 3.8943 11.1193 4.3397L9.7899 11.0377Z" fill="white"/>
</svg>
