<svg width="16" height="14" viewBox="0 0 16 14" fill="none" xmlns="http://www.w3.org/2000/svg">
<path fill-rule="evenodd" clip-rule="evenodd" d="M7.5208 4.29221L7.55438 4.84584L6.99479 4.77805C4.95791 4.51818 3.17843 3.63688 1.66756 2.15675L0.928908 1.42234L0.73865 1.96468C0.33575 3.17364 0.593158 4.45039 1.43253 5.30909C1.8802 5.78364 1.77948 5.85143 1.00725 5.56896C0.73865 5.47857 0.503625 5.41078 0.481242 5.44467C0.4029 5.52377 0.6715 6.55195 0.884142 6.9587C1.17513 7.52363 1.76828 8.07727 2.4174 8.40493L2.96579 8.6648L2.31668 8.6761C1.68994 8.6761 1.66756 8.6874 1.73471 8.92467C1.95854 9.65909 2.84268 10.4387 3.82755 10.7777L4.52143 11.0149L3.91708 11.3765C3.02175 11.8962 1.96973 12.19 0.917717 12.2126C0.414092 12.2239 0 12.2691 0 12.303C0 12.416 1.36538 13.0487 2.15999 13.2973C4.54382 14.0317 7.37531 13.7153 9.50173 12.4612C11.0126 11.5686 12.5235 9.79467 13.2286 8.07727C13.6091 7.16208 13.9896 5.48987 13.9896 4.68766C13.9896 4.16792 14.0232 4.10013 14.6499 3.4787C15.0192 3.11714 15.3662 2.72169 15.4333 2.6087C15.5452 2.39403 15.534 2.39403 14.9633 2.5861C14.012 2.92507 13.8777 2.87987 14.3477 2.37143C14.6947 2.00987 15.1088 1.35455 15.1088 1.16247C15.1088 1.12857 14.9409 1.18507 14.7506 1.28675C14.5492 1.39974 14.1015 1.56922 13.7658 1.67091L13.1614 1.86299L12.613 1.49013C12.3108 1.28675 11.8856 1.06078 11.6617 0.992988C11.0909 0.834807 10.218 0.857404 9.70318 1.03818C8.30422 1.54662 7.42008 2.85727 7.5208 4.29221Z" fill="white"/>
</svg>
