<svg width="446" height="396" viewBox="0 0 446 396" fill="none" xmlns="http://www.w3.org/2000/svg">
<g filter="url(#filter0_bd_1_22968)">
<rect x="23" y="19" width="400" height="350" rx="24" fill="url(#paint0_linear_1_22968)" shape-rendering="crispEdges"/>
<rect x="23.5" y="19.5" width="399" height="349" rx="23.5" stroke="url(#paint1_linear_1_22968)" shape-rendering="crispEdges"/>
</g>
<circle cx="223.5" cy="107.5" r="56.5" fill="url(#paint2_linear_1_22968)" fill-opacity="0.1"/>
<path d="M223.5 51C235.432 51 247.057 54.7773 256.71 61.7905C266.363 68.8038 273.548 78.6929 277.235 90.0405L223.5 107.5L223.5 51Z" fill="url(#paint3_linear_1_22968)"/>
<path d="M277.235 90.0405C280.455 99.9504 280.871 110.558 278.439 120.69C276.006 130.822 270.819 140.084 263.452 147.452C256.084 154.819 246.822 160.006 236.69 162.439C226.558 164.871 215.95 164.455 206.041 161.235L223.5 107.5L277.235 90.0405Z" fill="url(#paint4_linear_1_22968)" fill-opacity="0.5"/>
<path d="M206.041 161.235C194.693 157.548 184.804 150.363 177.791 140.71L223.5 107.5L206.041 161.235Z" fill="url(#paint5_linear_1_22968)" fill-opacity="0.4"/>
<path d="M177.791 140.71C169.344 129.084 165.644 114.676 167.446 100.419L223.5 107.5L177.791 140.71Z" fill="url(#paint6_linear_1_22968)" fill-opacity="0.3"/>
<path d="M167.421 100.614C168.728 89.9728 173.035 79.9226 179.841 71.6377C186.646 63.3528 195.668 57.1753 205.853 53.8266L223.5 107.5L167.421 100.614Z" fill="url(#paint7_linear_1_22968)" fill-opacity="0.2"/>
<path d="M205.572 53.9197C211.477 51.944 217.668 50.9579 223.894 51.0014L223.5 107.5L205.572 53.9197Z" fill="url(#paint8_linear_1_22968)" fill-opacity="0.1"/>
<path d="M40.0781 194H36.4872V182.364H40.2372C41.366 182.364 42.3319 182.597 43.1349 183.062C43.938 183.525 44.5535 184.189 44.9815 185.057C45.4096 185.92 45.6236 186.955 45.6236 188.159C45.6236 189.371 45.4077 190.415 44.9759 191.29C44.544 192.161 43.9152 192.831 43.0895 193.301C42.2637 193.767 41.2599 194 40.0781 194ZM37.8963 192.75H39.9872C40.9493 192.75 41.7467 192.564 42.3793 192.193C43.0118 191.822 43.4834 191.294 43.794 190.608C44.1046 189.922 44.2599 189.106 44.2599 188.159C44.2599 187.22 44.1065 186.411 43.7997 185.733C43.4929 185.051 43.0346 184.528 42.4247 184.165C41.8149 183.797 41.0554 183.614 40.1463 183.614H37.8963V192.75ZM49.3963 182.364V194H47.9872V182.364H49.3963ZM60.1761 186C60.0511 185.617 59.8864 185.275 59.6818 184.972C59.4811 184.665 59.2405 184.403 58.9602 184.188C58.6837 183.972 58.3693 183.807 58.017 183.693C57.6648 183.58 57.2784 183.523 56.858 183.523C56.1686 183.523 55.5417 183.701 54.9773 184.057C54.4129 184.413 53.964 184.938 53.6307 185.631C53.2973 186.324 53.1307 187.174 53.1307 188.182C53.1307 189.189 53.2992 190.04 53.6364 190.733C53.9735 191.426 54.4299 191.951 55.0057 192.307C55.5814 192.663 56.2292 192.841 56.9489 192.841C57.6155 192.841 58.2027 192.699 58.7102 192.415C59.2216 192.127 59.6193 191.722 59.9034 191.199C60.1913 190.672 60.3352 190.053 60.3352 189.341L60.767 189.432H57.267V188.182H61.6989V189.432C61.6989 190.39 61.4943 191.223 61.0852 191.932C60.6799 192.64 60.1193 193.189 59.4034 193.58C58.6913 193.966 57.8731 194.159 56.9489 194.159C55.9186 194.159 55.0133 193.917 54.233 193.432C53.4564 192.947 52.8504 192.258 52.4148 191.364C51.983 190.47 51.767 189.409 51.767 188.182C51.767 187.261 51.8902 186.434 52.1364 185.699C52.3864 184.96 52.7386 184.331 53.1932 183.812C53.6477 183.294 54.1856 182.896 54.8068 182.619C55.428 182.343 56.1117 182.205 56.858 182.205C57.4716 182.205 58.0436 182.297 58.5739 182.483C59.108 182.665 59.5833 182.924 60 183.261C60.4205 183.595 60.7708 183.994 61.0511 184.46C61.3314 184.922 61.5246 185.436 61.6307 186H60.1761ZM65.5213 182.364V194H64.1122V182.364H65.5213ZM67.7102 183.614V182.364H76.4375V183.614H72.7784V194H71.3693V183.614H67.7102ZM84.9759 185.273C84.9077 184.697 84.6312 184.25 84.1463 183.932C83.6615 183.614 83.0668 183.455 82.3622 183.455C81.8471 183.455 81.3963 183.538 81.0099 183.705C80.6274 183.871 80.3281 184.1 80.1122 184.392C79.9001 184.684 79.794 185.015 79.794 185.386C79.794 185.697 79.8679 185.964 80.0156 186.188C80.1671 186.407 80.3603 186.591 80.5952 186.739C80.83 186.883 81.0762 187.002 81.3338 187.097C81.5914 187.187 81.8281 187.261 82.044 187.318L83.2259 187.636C83.5289 187.716 83.866 187.826 84.2372 187.966C84.6122 188.106 84.9702 188.297 85.3111 188.54C85.6558 188.778 85.9399 189.085 86.1634 189.46C86.3868 189.835 86.4986 190.295 86.4986 190.841C86.4986 191.47 86.3338 192.038 86.0043 192.545C85.6785 193.053 85.2012 193.456 84.5724 193.756C83.9474 194.055 83.188 194.205 82.294 194.205C81.4607 194.205 80.7391 194.07 80.1293 193.801C79.5232 193.532 79.0459 193.157 78.6974 192.676C78.3527 192.195 78.1577 191.636 78.1122 191H79.5668C79.6046 191.439 79.7524 191.803 80.0099 192.091C80.2713 192.375 80.6009 192.587 80.9986 192.727C81.4001 192.864 81.8319 192.932 82.294 192.932C82.8319 192.932 83.3149 192.845 83.7429 192.67C84.1709 192.492 84.5099 192.246 84.7599 191.932C85.0099 191.614 85.1349 191.242 85.1349 190.818C85.1349 190.432 85.027 190.117 84.8111 189.875C84.5952 189.633 84.3111 189.436 83.9588 189.284C83.6065 189.133 83.2259 189 82.8168 188.886L81.3849 188.477C80.4759 188.216 79.7562 187.843 79.2259 187.358C78.6955 186.873 78.4304 186.239 78.4304 185.455C78.4304 184.803 78.6065 184.235 78.9588 183.75C79.3149 183.261 79.7921 182.883 80.3906 182.614C80.9929 182.341 81.6652 182.205 82.4077 182.205C83.1577 182.205 83.8243 182.339 84.4077 182.608C84.991 182.873 85.4531 183.237 85.794 183.699C86.1387 184.161 86.3205 184.686 86.3395 185.273H84.9759ZM93.3153 182.364H94.9972L98.9517 192.023H99.0881L103.043 182.364H104.724V194H103.406V185.159H103.293L99.6562 194H98.3835L94.7472 185.159H94.6335V194H93.3153V182.364ZM108.027 194H106.55L110.822 182.364H112.277L116.55 194H115.072L111.595 184.205H111.504L108.027 194ZM108.572 189.455H114.527V190.705H108.572V189.455ZM116.366 183.614V182.364H125.094V183.614H121.435V194H120.026V183.614H116.366ZM136.148 186H134.739C134.655 185.595 134.509 185.239 134.301 184.932C134.097 184.625 133.847 184.367 133.551 184.159C133.259 183.947 132.936 183.788 132.58 183.682C132.223 183.576 131.852 183.523 131.466 183.523C130.761 183.523 130.123 183.701 129.551 184.057C128.983 184.413 128.53 184.938 128.193 185.631C127.86 186.324 127.693 187.174 127.693 188.182C127.693 189.189 127.86 190.04 128.193 190.733C128.53 191.426 128.983 191.951 129.551 192.307C130.123 192.663 130.761 192.841 131.466 192.841C131.852 192.841 132.223 192.788 132.58 192.682C132.936 192.576 133.259 192.419 133.551 192.21C133.847 191.998 134.097 191.739 134.301 191.432C134.509 191.121 134.655 190.765 134.739 190.364H136.148C136.042 190.958 135.848 191.491 135.568 191.96C135.288 192.43 134.939 192.83 134.523 193.159C134.106 193.485 133.638 193.733 133.119 193.903C132.604 194.074 132.053 194.159 131.466 194.159C130.473 194.159 129.591 193.917 128.818 193.432C128.045 192.947 127.438 192.258 126.994 191.364C126.551 190.47 126.33 189.409 126.33 188.182C126.33 186.955 126.551 185.894 126.994 185C127.438 184.106 128.045 183.417 128.818 182.932C129.591 182.447 130.473 182.205 131.466 182.205C132.053 182.205 132.604 182.29 133.119 182.46C133.638 182.631 134.106 182.881 134.523 183.21C134.939 183.536 135.288 183.934 135.568 184.403C135.848 184.869 136.042 185.402 136.148 186ZM138.425 194V182.364H139.834V187.545H146.038V182.364H147.447V194H146.038V188.795H139.834V194H138.425ZM150.268 194V182.364H157.291V183.614H151.678V187.545H156.928V188.795H151.678V192.75H157.382V194H150.268ZM163.422 194H159.831V182.364H163.581C164.71 182.364 165.676 182.597 166.479 183.062C167.282 183.525 167.897 184.189 168.325 185.057C168.753 185.92 168.967 186.955 168.967 188.159C168.967 189.371 168.751 190.415 168.32 191.29C167.888 192.161 167.259 192.831 166.433 193.301C165.607 193.767 164.604 194 163.422 194ZM161.24 192.75H163.331C164.293 192.75 165.09 192.564 165.723 192.193C166.356 191.822 166.827 191.294 167.138 190.608C167.448 189.922 167.604 189.106 167.604 188.159C167.604 187.22 167.45 186.411 167.143 185.733C166.837 185.051 166.378 184.528 165.768 184.165C165.159 183.797 164.399 183.614 163.49 183.614H161.24V192.75Z" fill="#EAECF0"/>
<path d="M39.331 216.364H41.0128L44.9673 226.023H45.1037L49.0582 216.364H50.7401V228H49.4219V219.159H49.3082L45.6719 228H44.3991L40.7628 219.159H40.6491V228H39.331V216.364ZM55.9517 228.205C55.3987 228.205 54.8968 228.1 54.446 227.892C53.9953 227.68 53.6373 227.375 53.3722 226.977C53.107 226.576 52.9744 226.091 52.9744 225.523C52.9744 225.023 53.0729 224.617 53.2699 224.307C53.4669 223.992 53.7301 223.746 54.0597 223.568C54.3892 223.39 54.7528 223.258 55.1506 223.17C55.5521 223.08 55.9555 223.008 56.3608 222.955C56.8911 222.886 57.321 222.835 57.6506 222.801C57.9839 222.763 58.2263 222.701 58.3778 222.614C58.5331 222.527 58.6108 222.375 58.6108 222.159V222.114C58.6108 221.553 58.4574 221.117 58.1506 220.807C57.8475 220.496 57.3873 220.341 56.7699 220.341C56.1297 220.341 55.6278 220.481 55.2642 220.761C54.9006 221.042 54.6449 221.341 54.4972 221.659L53.2244 221.205C53.4517 220.674 53.7547 220.261 54.1335 219.966C54.5161 219.667 54.9328 219.458 55.3835 219.341C55.8381 219.22 56.285 219.159 56.7244 219.159C57.0047 219.159 57.3267 219.193 57.6903 219.261C58.0578 219.326 58.4119 219.46 58.7528 219.665C59.0975 219.869 59.3835 220.178 59.6108 220.591C59.8381 221.004 59.9517 221.557 59.9517 222.25V228H58.6108V226.818H58.5426C58.4517 227.008 58.3002 227.21 58.0881 227.426C57.8759 227.642 57.5938 227.826 57.2415 227.977C56.8892 228.129 56.4593 228.205 55.9517 228.205ZM56.1562 227C56.6866 227 57.1335 226.896 57.4972 226.688C57.8646 226.479 58.1411 226.21 58.3267 225.881C58.5161 225.551 58.6108 225.205 58.6108 224.841V223.614C58.554 223.682 58.429 223.744 58.2358 223.801C58.0464 223.854 57.8267 223.902 57.5767 223.943C57.3305 223.981 57.09 224.015 56.8551 224.045C56.6241 224.072 56.4366 224.095 56.2926 224.114C55.9441 224.159 55.6184 224.233 55.3153 224.335C55.0161 224.434 54.7737 224.583 54.5881 224.784C54.4063 224.981 54.3153 225.25 54.3153 225.591C54.3153 226.057 54.4877 226.409 54.8324 226.648C55.1809 226.883 55.6222 227 56.1562 227ZM66.1946 219.273V220.409H61.6719V219.273H66.1946ZM62.9901 217.182H64.331V225.5C64.331 225.879 64.3859 226.163 64.4957 226.352C64.6094 226.538 64.7533 226.663 64.9276 226.727C65.1056 226.788 65.2931 226.818 65.4901 226.818C65.6378 226.818 65.759 226.811 65.8537 226.795C65.9484 226.777 66.0241 226.761 66.081 226.75L66.3537 227.955C66.2628 227.989 66.1359 228.023 65.973 228.057C65.8101 228.095 65.6037 228.114 65.3537 228.114C64.9749 228.114 64.6037 228.032 64.2401 227.869C63.8802 227.706 63.581 227.458 63.3423 227.125C63.1075 226.792 62.9901 226.371 62.9901 225.864V217.182ZM71.6634 228.182C70.8452 228.182 70.1406 227.989 69.5497 227.602C68.9588 227.216 68.5043 226.684 68.1861 226.006C67.8679 225.328 67.7088 224.553 67.7088 223.682C67.7088 222.795 67.8717 222.013 68.1974 221.335C68.527 220.653 68.9853 220.121 69.5724 219.739C70.1634 219.352 70.8527 219.159 71.6406 219.159C72.2543 219.159 72.8073 219.273 73.2997 219.5C73.7921 219.727 74.1955 220.045 74.5099 220.455C74.8243 220.864 75.0194 221.341 75.0952 221.886H73.7543C73.652 221.489 73.4247 221.136 73.0724 220.83C72.724 220.519 72.2543 220.364 71.6634 220.364C71.1406 220.364 70.6823 220.5 70.2884 220.773C69.8982 221.042 69.5933 221.422 69.3736 221.915C69.1577 222.403 69.0497 222.977 69.0497 223.636C69.0497 224.311 69.1558 224.898 69.3679 225.398C69.5838 225.898 69.8868 226.286 70.277 226.562C70.6709 226.839 71.133 226.977 71.6634 226.977C72.0118 226.977 72.3281 226.917 72.6122 226.795C72.8963 226.674 73.1368 226.5 73.3338 226.273C73.5308 226.045 73.6709 225.773 73.7543 225.455H75.0952C75.0194 225.97 74.8319 226.434 74.5327 226.847C74.2372 227.256 73.8452 227.581 73.3565 227.824C72.8717 228.062 72.3073 228.182 71.6634 228.182ZM78.3963 222.75V228H77.0554V216.364H78.3963V220.636H78.5099C78.7145 220.186 79.0213 219.828 79.4304 219.562C79.8433 219.294 80.3925 219.159 81.0781 219.159C81.6728 219.159 82.1937 219.278 82.6406 219.517C83.0876 219.752 83.4342 220.114 83.6804 220.602C83.9304 221.087 84.0554 221.705 84.0554 222.455V228H82.7145V222.545C82.7145 221.852 82.5346 221.316 82.1747 220.938C81.8187 220.555 81.3243 220.364 80.6918 220.364C80.2524 220.364 79.8584 220.456 79.5099 220.642C79.1652 220.828 78.8925 221.098 78.6918 221.455C78.4948 221.811 78.3963 222.242 78.3963 222.75ZM90.1676 228.182C89.3267 228.182 88.6013 227.996 87.9915 227.625C87.3854 227.25 86.9176 226.727 86.5881 226.057C86.2623 225.383 86.0994 224.598 86.0994 223.705C86.0994 222.811 86.2623 222.023 86.5881 221.341C86.9176 220.655 87.3759 220.121 87.9631 219.739C88.554 219.352 89.2434 219.159 90.0312 219.159C90.4858 219.159 90.9347 219.235 91.3778 219.386C91.821 219.538 92.2244 219.784 92.5881 220.125C92.9517 220.462 93.2415 220.909 93.4574 221.466C93.6733 222.023 93.7812 222.708 93.7812 223.523V224.091H87.054V222.932H92.4176C92.4176 222.439 92.3191 222 92.1222 221.614C91.929 221.227 91.6525 220.922 91.2926 220.699C90.9366 220.475 90.5161 220.364 90.0312 220.364C89.4972 220.364 89.035 220.496 88.6449 220.761C88.2585 221.023 87.9612 221.364 87.7528 221.784C87.5445 222.205 87.4403 222.655 87.4403 223.136V223.909C87.4403 224.568 87.554 225.127 87.7812 225.585C88.0123 226.04 88.3324 226.386 88.7415 226.625C89.1506 226.86 89.6259 226.977 90.1676 226.977C90.5199 226.977 90.8381 226.928 91.1222 226.83C91.41 226.727 91.6581 226.576 91.8665 226.375C92.0748 226.17 92.2358 225.917 92.3494 225.614L93.6449 225.977C93.5085 226.417 93.2794 226.803 92.9574 227.136C92.6354 227.466 92.2377 227.723 91.7642 227.909C91.2907 228.091 90.7585 228.182 90.1676 228.182ZM102.003 221.227L100.798 221.568C100.723 221.367 100.611 221.172 100.463 220.983C100.319 220.79 100.122 220.631 99.8722 220.506C99.6222 220.381 99.3021 220.318 98.9119 220.318C98.3778 220.318 97.9328 220.441 97.5767 220.688C97.2244 220.93 97.0483 221.239 97.0483 221.614C97.0483 221.947 97.1695 222.21 97.4119 222.403C97.6544 222.597 98.0331 222.758 98.5483 222.886L99.8438 223.205C100.624 223.394 101.205 223.684 101.588 224.074C101.971 224.46 102.162 224.958 102.162 225.568C102.162 226.068 102.018 226.515 101.73 226.909C101.446 227.303 101.048 227.614 100.537 227.841C100.026 228.068 99.4309 228.182 98.7528 228.182C97.8627 228.182 97.1259 227.989 96.5426 227.602C95.9593 227.216 95.59 226.652 95.4347 225.909L96.7074 225.591C96.8286 226.061 97.0578 226.413 97.3949 226.648C97.7358 226.883 98.1809 227 98.7301 227C99.3551 227 99.8513 226.867 100.219 226.602C100.59 226.333 100.776 226.011 100.776 225.636C100.776 225.333 100.67 225.08 100.457 224.875C100.245 224.667 99.9195 224.511 99.4801 224.409L98.0256 224.068C97.2263 223.879 96.6392 223.585 96.2642 223.188C95.893 222.786 95.7074 222.284 95.7074 221.682C95.7074 221.189 95.8456 220.754 96.1222 220.375C96.4025 219.996 96.7831 219.699 97.2642 219.483C97.7491 219.267 98.2983 219.159 98.9119 219.159C99.7756 219.159 100.454 219.348 100.946 219.727C101.442 220.106 101.795 220.606 102.003 221.227ZM112.567 219.273V220.409H107.862V219.273H112.567ZM109.271 228V218.068C109.271 217.568 109.389 217.152 109.624 216.818C109.858 216.485 110.163 216.235 110.538 216.068C110.913 215.902 111.309 215.818 111.726 215.818C112.055 215.818 112.324 215.845 112.533 215.898C112.741 215.951 112.896 216 112.999 216.045L112.612 217.205C112.544 217.182 112.449 217.153 112.328 217.119C112.211 217.085 112.055 217.068 111.862 217.068C111.419 217.068 111.099 217.18 110.902 217.403C110.709 217.627 110.612 217.955 110.612 218.386V228H109.271ZM114.446 228V219.273H115.787V228H114.446ZM115.128 217.818C114.866 217.818 114.641 217.729 114.452 217.551C114.266 217.373 114.173 217.159 114.173 216.909C114.173 216.659 114.266 216.445 114.452 216.267C114.641 216.089 114.866 216 115.128 216C115.389 216 115.613 216.089 115.798 216.267C115.988 216.445 116.082 216.659 116.082 216.909C116.082 217.159 115.988 217.373 115.798 217.551C115.613 217.729 115.389 217.818 115.128 217.818ZM118.243 228V219.273H119.538V220.591H119.629C119.788 220.159 120.076 219.809 120.493 219.54C120.91 219.271 121.379 219.136 121.902 219.136C122 219.136 122.124 219.138 122.271 219.142C122.419 219.146 122.531 219.152 122.607 219.159V220.523C122.561 220.511 122.457 220.494 122.294 220.472C122.135 220.445 121.966 220.432 121.788 220.432C121.364 220.432 120.985 220.521 120.652 220.699C120.322 220.873 120.061 221.116 119.868 221.426C119.679 221.733 119.584 222.083 119.584 222.477V228H118.243ZM130.378 221.227L129.173 221.568C129.098 221.367 128.986 221.172 128.838 220.983C128.694 220.79 128.497 220.631 128.247 220.506C127.997 220.381 127.677 220.318 127.287 220.318C126.753 220.318 126.308 220.441 125.952 220.688C125.599 220.93 125.423 221.239 125.423 221.614C125.423 221.947 125.545 222.21 125.787 222.403C126.029 222.597 126.408 222.758 126.923 222.886L128.219 223.205C128.999 223.394 129.58 223.684 129.963 224.074C130.346 224.46 130.537 224.958 130.537 225.568C130.537 226.068 130.393 226.515 130.105 226.909C129.821 227.303 129.423 227.614 128.912 227.841C128.401 228.068 127.806 228.182 127.128 228.182C126.238 228.182 125.501 227.989 124.918 227.602C124.334 227.216 123.965 226.652 123.81 225.909L125.082 225.591C125.204 226.061 125.433 226.413 125.77 226.648C126.111 226.883 126.556 227 127.105 227C127.73 227 128.226 226.867 128.594 226.602C128.965 226.333 129.151 226.011 129.151 225.636C129.151 225.333 129.045 225.08 128.832 224.875C128.62 224.667 128.295 224.511 127.855 224.409L126.401 224.068C125.601 223.879 125.014 223.585 124.639 223.188C124.268 222.786 124.082 222.284 124.082 221.682C124.082 221.189 124.221 220.754 124.497 220.375C124.777 219.996 125.158 219.699 125.639 219.483C126.124 219.267 126.673 219.159 127.287 219.159C128.151 219.159 128.829 219.348 129.321 219.727C129.817 220.106 130.17 220.606 130.378 221.227ZM136.351 219.273V220.409H131.828V219.273H136.351ZM133.146 217.182H134.487V225.5C134.487 225.879 134.542 226.163 134.652 226.352C134.766 226.538 134.91 226.663 135.084 226.727C135.262 226.788 135.449 226.818 135.646 226.818C135.794 226.818 135.915 226.811 136.01 226.795C136.105 226.777 136.18 226.761 136.237 226.75L136.51 227.955C136.419 227.989 136.292 228.023 136.129 228.057C135.966 228.095 135.76 228.114 135.51 228.114C135.131 228.114 134.76 228.032 134.396 227.869C134.036 227.706 133.737 227.458 133.499 227.125C133.264 226.792 133.146 226.371 133.146 225.864V217.182ZM146.936 216.364V228H145.527V217.841H145.459L142.618 219.727V218.295L145.527 216.364H146.936Z" fill="#EAECF0"/>
<path d="M38.206 248.364H39.8878L43.8423 258.023H43.9787L47.9332 248.364H49.6151V260H48.2969V251.159H48.1832L44.5469 260H43.2741L39.6378 251.159H39.5241V260H38.206V248.364ZM54.8267 260.205C54.2737 260.205 53.7718 260.1 53.321 259.892C52.8703 259.68 52.5123 259.375 52.2472 258.977C51.982 258.576 51.8494 258.091 51.8494 257.523C51.8494 257.023 51.9479 256.617 52.1449 256.307C52.3419 255.992 52.6051 255.746 52.9347 255.568C53.2642 255.39 53.6278 255.258 54.0256 255.17C54.4271 255.08 54.8305 255.008 55.2358 254.955C55.7661 254.886 56.196 254.835 56.5256 254.801C56.8589 254.763 57.1013 254.701 57.2528 254.614C57.4081 254.527 57.4858 254.375 57.4858 254.159V254.114C57.4858 253.553 57.3324 253.117 57.0256 252.807C56.7225 252.496 56.2623 252.341 55.6449 252.341C55.0047 252.341 54.5028 252.481 54.1392 252.761C53.7756 253.042 53.5199 253.341 53.3722 253.659L52.0994 253.205C52.3267 252.674 52.6297 252.261 53.0085 251.966C53.3911 251.667 53.8078 251.458 54.2585 251.341C54.7131 251.22 55.16 251.159 55.5994 251.159C55.8797 251.159 56.2017 251.193 56.5653 251.261C56.9328 251.326 57.2869 251.46 57.6278 251.665C57.9725 251.869 58.2585 252.178 58.4858 252.591C58.7131 253.004 58.8267 253.557 58.8267 254.25V260H57.4858V258.818H57.4176C57.3267 259.008 57.1752 259.21 56.9631 259.426C56.7509 259.642 56.4688 259.826 56.1165 259.977C55.7642 260.129 55.3343 260.205 54.8267 260.205ZM55.0312 259C55.5616 259 56.0085 258.896 56.3722 258.688C56.7396 258.479 57.0161 258.21 57.2017 257.881C57.3911 257.551 57.4858 257.205 57.4858 256.841V255.614C57.429 255.682 57.304 255.744 57.1108 255.801C56.9214 255.854 56.7017 255.902 56.4517 255.943C56.2055 255.981 55.965 256.015 55.7301 256.045C55.4991 256.072 55.3116 256.095 55.1676 256.114C54.8191 256.159 54.4934 256.233 54.1903 256.335C53.8911 256.434 53.6487 256.583 53.4631 256.784C53.2813 256.981 53.1903 257.25 53.1903 257.591C53.1903 258.057 53.3627 258.409 53.7074 258.648C54.0559 258.883 54.4972 259 55.0312 259ZM65.0696 251.273V252.409H60.5469V251.273H65.0696ZM61.8651 249.182H63.206V257.5C63.206 257.879 63.2609 258.163 63.3707 258.352C63.4844 258.538 63.6283 258.663 63.8026 258.727C63.9806 258.788 64.1681 258.818 64.3651 258.818C64.5128 258.818 64.634 258.811 64.7287 258.795C64.8234 258.777 64.8991 258.761 64.956 258.75L65.2287 259.955C65.1378 259.989 65.0109 260.023 64.848 260.057C64.6851 260.095 64.4787 260.114 64.2287 260.114C63.8499 260.114 63.4787 260.032 63.1151 259.869C62.7552 259.706 62.456 259.458 62.2173 259.125C61.9825 258.792 61.8651 258.371 61.8651 257.864V249.182ZM70.5384 260.182C69.7202 260.182 69.0156 259.989 68.4247 259.602C67.8338 259.216 67.3793 258.684 67.0611 258.006C66.7429 257.328 66.5838 256.553 66.5838 255.682C66.5838 254.795 66.7467 254.013 67.0724 253.335C67.402 252.653 67.8603 252.121 68.4474 251.739C69.0384 251.352 69.7277 251.159 70.5156 251.159C71.1293 251.159 71.6823 251.273 72.1747 251.5C72.6671 251.727 73.0705 252.045 73.3849 252.455C73.6993 252.864 73.8944 253.341 73.9702 253.886H72.6293C72.527 253.489 72.2997 253.136 71.9474 252.83C71.599 252.519 71.1293 252.364 70.5384 252.364C70.0156 252.364 69.5573 252.5 69.1634 252.773C68.7732 253.042 68.4683 253.422 68.2486 253.915C68.0327 254.403 67.9247 254.977 67.9247 255.636C67.9247 256.311 68.0308 256.898 68.2429 257.398C68.4588 257.898 68.7618 258.286 69.152 258.562C69.5459 258.839 70.008 258.977 70.5384 258.977C70.8868 258.977 71.2031 258.917 71.4872 258.795C71.7713 258.674 72.0118 258.5 72.2088 258.273C72.4058 258.045 72.5459 257.773 72.6293 257.455H73.9702C73.8944 257.97 73.7069 258.434 73.4077 258.847C73.1122 259.256 72.7202 259.581 72.2315 259.824C71.7467 260.062 71.1823 260.182 70.5384 260.182ZM77.2713 254.75V260H75.9304V248.364H77.2713V252.636H77.3849C77.5895 252.186 77.8963 251.828 78.3054 251.562C78.7183 251.294 79.2675 251.159 79.9531 251.159C80.5478 251.159 81.0687 251.278 81.5156 251.517C81.9626 251.752 82.3092 252.114 82.5554 252.602C82.8054 253.087 82.9304 253.705 82.9304 254.455V260H81.5895V254.545C81.5895 253.852 81.4096 253.316 81.0497 252.938C80.6937 252.555 80.1993 252.364 79.5668 252.364C79.1274 252.364 78.7334 252.456 78.3849 252.642C78.0402 252.828 77.7675 253.098 77.5668 253.455C77.3698 253.811 77.2713 254.242 77.2713 254.75ZM89.0426 260.182C88.2017 260.182 87.4763 259.996 86.8665 259.625C86.2604 259.25 85.7926 258.727 85.4631 258.057C85.1373 257.383 84.9744 256.598 84.9744 255.705C84.9744 254.811 85.1373 254.023 85.4631 253.341C85.7926 252.655 86.2509 252.121 86.8381 251.739C87.429 251.352 88.1184 251.159 88.9062 251.159C89.3608 251.159 89.8097 251.235 90.2528 251.386C90.696 251.538 91.0994 251.784 91.4631 252.125C91.8267 252.462 92.1165 252.909 92.3324 253.466C92.5483 254.023 92.6562 254.708 92.6562 255.523V256.091H85.929V254.932H91.2926C91.2926 254.439 91.1941 254 90.9972 253.614C90.804 253.227 90.5275 252.922 90.1676 252.699C89.8116 252.475 89.3911 252.364 88.9062 252.364C88.3722 252.364 87.91 252.496 87.5199 252.761C87.1335 253.023 86.8362 253.364 86.6278 253.784C86.4195 254.205 86.3153 254.655 86.3153 255.136V255.909C86.3153 256.568 86.429 257.127 86.6562 257.585C86.8873 258.04 87.2074 258.386 87.6165 258.625C88.0256 258.86 88.5009 258.977 89.0426 258.977C89.3949 258.977 89.7131 258.928 89.9972 258.83C90.285 258.727 90.5331 258.576 90.7415 258.375C90.9498 258.17 91.1108 257.917 91.2244 257.614L92.5199 257.977C92.3835 258.417 92.1544 258.803 91.8324 259.136C91.5104 259.466 91.1127 259.723 90.6392 259.909C90.1657 260.091 89.6335 260.182 89.0426 260.182ZM100.878 253.227L99.6733 253.568C99.5975 253.367 99.4858 253.172 99.3381 252.983C99.1941 252.79 98.9972 252.631 98.7472 252.506C98.4972 252.381 98.1771 252.318 97.7869 252.318C97.2528 252.318 96.8078 252.441 96.4517 252.688C96.0994 252.93 95.9233 253.239 95.9233 253.614C95.9233 253.947 96.0445 254.21 96.2869 254.403C96.5294 254.597 96.9081 254.758 97.4233 254.886L98.7188 255.205C99.4991 255.394 100.08 255.684 100.463 256.074C100.846 256.46 101.037 256.958 101.037 257.568C101.037 258.068 100.893 258.515 100.605 258.909C100.321 259.303 99.9233 259.614 99.4119 259.841C98.9006 260.068 98.3059 260.182 97.6278 260.182C96.7377 260.182 96.0009 259.989 95.4176 259.602C94.8343 259.216 94.465 258.652 94.3097 257.909L95.5824 257.591C95.7036 258.061 95.9328 258.413 96.2699 258.648C96.6108 258.883 97.0559 259 97.6051 259C98.2301 259 98.7263 258.867 99.0938 258.602C99.465 258.333 99.6506 258.011 99.6506 257.636C99.6506 257.333 99.5445 257.08 99.3324 256.875C99.1203 256.667 98.7945 256.511 98.3551 256.409L96.9006 256.068C96.1013 255.879 95.5142 255.585 95.1392 255.188C94.768 254.786 94.5824 254.284 94.5824 253.682C94.5824 253.189 94.7206 252.754 94.9972 252.375C95.2775 251.996 95.6581 251.699 96.1392 251.483C96.6241 251.267 97.1733 251.159 97.7869 251.159C98.6506 251.159 99.3286 251.348 99.821 251.727C100.317 252.106 100.67 252.606 100.878 253.227ZM111.442 251.273V252.409H106.737V251.273H111.442ZM108.146 260V250.068C108.146 249.568 108.264 249.152 108.499 248.818C108.733 248.485 109.038 248.235 109.413 248.068C109.788 247.902 110.184 247.818 110.601 247.818C110.93 247.818 111.199 247.845 111.408 247.898C111.616 247.951 111.771 248 111.874 248.045L111.487 249.205C111.419 249.182 111.324 249.153 111.203 249.119C111.086 249.085 110.93 249.068 110.737 249.068C110.294 249.068 109.974 249.18 109.777 249.403C109.584 249.627 109.487 249.955 109.487 250.386V260H108.146ZM113.321 260V251.273H114.662V260H113.321ZM114.003 249.818C113.741 249.818 113.516 249.729 113.327 249.551C113.141 249.373 113.048 249.159 113.048 248.909C113.048 248.659 113.141 248.445 113.327 248.267C113.516 248.089 113.741 248 114.003 248C114.264 248 114.488 248.089 114.673 248.267C114.863 248.445 114.957 248.659 114.957 248.909C114.957 249.159 114.863 249.373 114.673 249.551C114.488 249.729 114.264 249.818 114.003 249.818ZM117.118 260V251.273H118.413V252.591H118.504C118.663 252.159 118.951 251.809 119.368 251.54C119.785 251.271 120.254 251.136 120.777 251.136C120.875 251.136 120.999 251.138 121.146 251.142C121.294 251.146 121.406 251.152 121.482 251.159V252.523C121.436 252.511 121.332 252.494 121.169 252.472C121.01 252.445 120.841 252.432 120.663 252.432C120.239 252.432 119.86 252.521 119.527 252.699C119.197 252.873 118.936 253.116 118.743 253.426C118.554 253.733 118.459 254.083 118.459 254.477V260H117.118ZM129.253 253.227L128.048 253.568C127.973 253.367 127.861 253.172 127.713 252.983C127.569 252.79 127.372 252.631 127.122 252.506C126.872 252.381 126.552 252.318 126.162 252.318C125.628 252.318 125.183 252.441 124.827 252.688C124.474 252.93 124.298 253.239 124.298 253.614C124.298 253.947 124.42 254.21 124.662 254.403C124.904 254.597 125.283 254.758 125.798 254.886L127.094 255.205C127.874 255.394 128.455 255.684 128.838 256.074C129.221 256.46 129.412 256.958 129.412 257.568C129.412 258.068 129.268 258.515 128.98 258.909C128.696 259.303 128.298 259.614 127.787 259.841C127.276 260.068 126.681 260.182 126.003 260.182C125.113 260.182 124.376 259.989 123.793 259.602C123.209 259.216 122.84 258.652 122.685 257.909L123.957 257.591C124.079 258.061 124.308 258.413 124.645 258.648C124.986 258.883 125.431 259 125.98 259C126.605 259 127.101 258.867 127.469 258.602C127.84 258.333 128.026 258.011 128.026 257.636C128.026 257.333 127.92 257.08 127.707 256.875C127.495 256.667 127.17 256.511 126.73 256.409L125.276 256.068C124.476 255.879 123.889 255.585 123.514 255.188C123.143 254.786 122.957 254.284 122.957 253.682C122.957 253.189 123.096 252.754 123.372 252.375C123.652 251.996 124.033 251.699 124.514 251.483C124.999 251.267 125.548 251.159 126.162 251.159C127.026 251.159 127.704 251.348 128.196 251.727C128.692 252.106 129.045 252.606 129.253 253.227ZM135.226 251.273V252.409H130.703V251.273H135.226ZM132.021 249.182H133.362V257.5C133.362 257.879 133.417 258.163 133.527 258.352C133.641 258.538 133.785 258.663 133.959 258.727C134.137 258.788 134.324 258.818 134.521 258.818C134.669 258.818 134.79 258.811 134.885 258.795C134.98 258.777 135.055 258.761 135.112 258.75L135.385 259.955C135.294 259.989 135.167 260.023 135.004 260.057C134.841 260.095 134.635 260.114 134.385 260.114C134.006 260.114 133.635 260.032 133.271 259.869C132.911 259.706 132.612 259.458 132.374 259.125C132.139 258.792 132.021 258.371 132.021 257.864V249.182ZM141.72 260V258.977L145.561 254.773C146.012 254.28 146.383 253.852 146.675 253.489C146.966 253.121 147.182 252.777 147.322 252.455C147.466 252.129 147.538 251.788 147.538 251.432C147.538 251.023 147.44 250.669 147.243 250.369C147.05 250.07 146.785 249.839 146.447 249.676C146.11 249.513 145.732 249.432 145.311 249.432C144.864 249.432 144.474 249.525 144.141 249.71C143.811 249.892 143.555 250.148 143.374 250.477C143.196 250.807 143.107 251.193 143.107 251.636H141.766C141.766 250.955 141.923 250.356 142.237 249.841C142.552 249.326 142.98 248.924 143.521 248.636C144.067 248.348 144.679 248.205 145.357 248.205C146.038 248.205 146.643 248.348 147.169 248.636C147.696 248.924 148.108 249.312 148.408 249.801C148.707 250.29 148.857 250.833 148.857 251.432C148.857 251.86 148.779 252.278 148.624 252.688C148.472 253.093 148.207 253.545 147.828 254.045C147.453 254.542 146.932 255.148 146.266 255.864L143.652 258.659V258.75H149.061V260H141.72Z" fill="#EAECF0"/>
<path d="M37.956 280.364H39.6378L43.5923 290.023H43.7287L47.6832 280.364H49.3651V292H48.0469V283.159H47.9332L44.2969 292H43.0241L39.3878 283.159H39.2741V292H37.956V280.364ZM54.5767 292.205C54.0237 292.205 53.5218 292.1 53.071 291.892C52.6203 291.68 52.2623 291.375 51.9972 290.977C51.732 290.576 51.5994 290.091 51.5994 289.523C51.5994 289.023 51.6979 288.617 51.8949 288.307C52.0919 287.992 52.3551 287.746 52.6847 287.568C53.0142 287.39 53.3778 287.258 53.7756 287.17C54.1771 287.08 54.5805 287.008 54.9858 286.955C55.5161 286.886 55.946 286.835 56.2756 286.801C56.6089 286.763 56.8513 286.701 57.0028 286.614C57.1581 286.527 57.2358 286.375 57.2358 286.159V286.114C57.2358 285.553 57.0824 285.117 56.7756 284.807C56.4725 284.496 56.0123 284.341 55.3949 284.341C54.7547 284.341 54.2528 284.481 53.8892 284.761C53.5256 285.042 53.2699 285.341 53.1222 285.659L51.8494 285.205C52.0767 284.674 52.3797 284.261 52.7585 283.966C53.1411 283.667 53.5578 283.458 54.0085 283.341C54.4631 283.22 54.91 283.159 55.3494 283.159C55.6297 283.159 55.9517 283.193 56.3153 283.261C56.6828 283.326 57.0369 283.46 57.3778 283.665C57.7225 283.869 58.0085 284.178 58.2358 284.591C58.4631 285.004 58.5767 285.557 58.5767 286.25V292H57.2358V290.818H57.1676C57.0767 291.008 56.9252 291.21 56.7131 291.426C56.5009 291.642 56.2188 291.826 55.8665 291.977C55.5142 292.129 55.0843 292.205 54.5767 292.205ZM54.7812 291C55.3116 291 55.7585 290.896 56.1222 290.688C56.4896 290.479 56.7661 290.21 56.9517 289.881C57.1411 289.551 57.2358 289.205 57.2358 288.841V287.614C57.179 287.682 57.054 287.744 56.8608 287.801C56.6714 287.854 56.4517 287.902 56.2017 287.943C55.9555 287.981 55.715 288.015 55.4801 288.045C55.2491 288.072 55.0616 288.095 54.9176 288.114C54.5691 288.159 54.2434 288.233 53.9403 288.335C53.6411 288.434 53.3987 288.583 53.2131 288.784C53.0313 288.981 52.9403 289.25 52.9403 289.591C52.9403 290.057 53.1127 290.409 53.4574 290.648C53.8059 290.883 54.2472 291 54.7812 291ZM64.8196 283.273V284.409H60.2969V283.273H64.8196ZM61.6151 281.182H62.956V289.5C62.956 289.879 63.0109 290.163 63.1207 290.352C63.2344 290.538 63.3783 290.663 63.5526 290.727C63.7306 290.788 63.9181 290.818 64.1151 290.818C64.2628 290.818 64.384 290.811 64.4787 290.795C64.5734 290.777 64.6491 290.761 64.706 290.75L64.9787 291.955C64.8878 291.989 64.7609 292.023 64.598 292.057C64.4351 292.095 64.2287 292.114 63.9787 292.114C63.5999 292.114 63.2287 292.032 62.8651 291.869C62.5052 291.706 62.206 291.458 61.9673 291.125C61.7325 290.792 61.6151 290.371 61.6151 289.864V281.182ZM70.2884 292.182C69.4702 292.182 68.7656 291.989 68.1747 291.602C67.5838 291.216 67.1293 290.684 66.8111 290.006C66.4929 289.328 66.3338 288.553 66.3338 287.682C66.3338 286.795 66.4967 286.013 66.8224 285.335C67.152 284.653 67.6103 284.121 68.1974 283.739C68.7884 283.352 69.4777 283.159 70.2656 283.159C70.8793 283.159 71.4323 283.273 71.9247 283.5C72.4171 283.727 72.8205 284.045 73.1349 284.455C73.4493 284.864 73.6444 285.341 73.7202 285.886H72.3793C72.277 285.489 72.0497 285.136 71.6974 284.83C71.349 284.519 70.8793 284.364 70.2884 284.364C69.7656 284.364 69.3073 284.5 68.9134 284.773C68.5232 285.042 68.2183 285.422 67.9986 285.915C67.7827 286.403 67.6747 286.977 67.6747 287.636C67.6747 288.311 67.7808 288.898 67.9929 289.398C68.2088 289.898 68.5118 290.286 68.902 290.562C69.2959 290.839 69.758 290.977 70.2884 290.977C70.6368 290.977 70.9531 290.917 71.2372 290.795C71.5213 290.674 71.7618 290.5 71.9588 290.273C72.1558 290.045 72.2959 289.773 72.3793 289.455H73.7202C73.6444 289.97 73.4569 290.434 73.1577 290.847C72.8622 291.256 72.4702 291.581 71.9815 291.824C71.4967 292.062 70.9323 292.182 70.2884 292.182ZM77.0213 286.75V292H75.6804V280.364H77.0213V284.636H77.1349C77.3395 284.186 77.6463 283.828 78.0554 283.562C78.4683 283.294 79.0175 283.159 79.7031 283.159C80.2978 283.159 80.8187 283.278 81.2656 283.517C81.7126 283.752 82.0592 284.114 82.3054 284.602C82.5554 285.087 82.6804 285.705 82.6804 286.455V292H81.3395V286.545C81.3395 285.852 81.1596 285.316 80.7997 284.938C80.4437 284.555 79.9493 284.364 79.3168 284.364C78.8774 284.364 78.4834 284.456 78.1349 284.642C77.7902 284.828 77.5175 285.098 77.3168 285.455C77.1198 285.811 77.0213 286.242 77.0213 286.75ZM88.7926 292.182C87.9517 292.182 87.2263 291.996 86.6165 291.625C86.0104 291.25 85.5426 290.727 85.2131 290.057C84.8873 289.383 84.7244 288.598 84.7244 287.705C84.7244 286.811 84.8873 286.023 85.2131 285.341C85.5426 284.655 86.0009 284.121 86.5881 283.739C87.179 283.352 87.8684 283.159 88.6562 283.159C89.1108 283.159 89.5597 283.235 90.0028 283.386C90.446 283.538 90.8494 283.784 91.2131 284.125C91.5767 284.462 91.8665 284.909 92.0824 285.466C92.2983 286.023 92.4062 286.708 92.4062 287.523V288.091H85.679V286.932H91.0426C91.0426 286.439 90.9441 286 90.7472 285.614C90.554 285.227 90.2775 284.922 89.9176 284.699C89.5616 284.475 89.1411 284.364 88.6562 284.364C88.1222 284.364 87.66 284.496 87.2699 284.761C86.8835 285.023 86.5862 285.364 86.3778 285.784C86.1695 286.205 86.0653 286.655 86.0653 287.136V287.909C86.0653 288.568 86.179 289.127 86.4062 289.585C86.6373 290.04 86.9574 290.386 87.3665 290.625C87.7756 290.86 88.2509 290.977 88.7926 290.977C89.1449 290.977 89.4631 290.928 89.7472 290.83C90.035 290.727 90.2831 290.576 90.4915 290.375C90.6998 290.17 90.8608 289.917 90.9744 289.614L92.2699 289.977C92.1335 290.417 91.9044 290.803 91.5824 291.136C91.2604 291.466 90.8627 291.723 90.3892 291.909C89.9157 292.091 89.3835 292.182 88.7926 292.182ZM100.628 285.227L99.4233 285.568C99.3475 285.367 99.2358 285.172 99.0881 284.983C98.9441 284.79 98.7472 284.631 98.4972 284.506C98.2472 284.381 97.9271 284.318 97.5369 284.318C97.0028 284.318 96.5578 284.441 96.2017 284.688C95.8494 284.93 95.6733 285.239 95.6733 285.614C95.6733 285.947 95.7945 286.21 96.0369 286.403C96.2794 286.597 96.6581 286.758 97.1733 286.886L98.4688 287.205C99.2491 287.394 99.8305 287.684 100.213 288.074C100.596 288.46 100.787 288.958 100.787 289.568C100.787 290.068 100.643 290.515 100.355 290.909C100.071 291.303 99.6733 291.614 99.1619 291.841C98.6506 292.068 98.0559 292.182 97.3778 292.182C96.4877 292.182 95.7509 291.989 95.1676 291.602C94.5843 291.216 94.215 290.652 94.0597 289.909L95.3324 289.591C95.4536 290.061 95.6828 290.413 96.0199 290.648C96.3608 290.883 96.8059 291 97.3551 291C97.9801 291 98.4763 290.867 98.8438 290.602C99.215 290.333 99.4006 290.011 99.4006 289.636C99.4006 289.333 99.2945 289.08 99.0824 288.875C98.8703 288.667 98.5445 288.511 98.1051 288.409L96.6506 288.068C95.8513 287.879 95.2642 287.585 94.8892 287.188C94.518 286.786 94.3324 286.284 94.3324 285.682C94.3324 285.189 94.4706 284.754 94.7472 284.375C95.0275 283.996 95.4081 283.699 95.8892 283.483C96.3741 283.267 96.9233 283.159 97.5369 283.159C98.4006 283.159 99.0786 283.348 99.571 283.727C100.067 284.106 100.42 284.606 100.628 285.227ZM111.192 283.273V284.409H106.487V283.273H111.192ZM107.896 292V282.068C107.896 281.568 108.014 281.152 108.249 280.818C108.483 280.485 108.788 280.235 109.163 280.068C109.538 279.902 109.934 279.818 110.351 279.818C110.68 279.818 110.949 279.845 111.158 279.898C111.366 279.951 111.521 280 111.624 280.045L111.237 281.205C111.169 281.182 111.074 281.153 110.953 281.119C110.836 281.085 110.68 281.068 110.487 281.068C110.044 281.068 109.724 281.18 109.527 281.403C109.334 281.627 109.237 281.955 109.237 282.386V292H107.896ZM113.071 292V283.273H114.412V292H113.071ZM113.753 281.818C113.491 281.818 113.266 281.729 113.077 281.551C112.891 281.373 112.798 281.159 112.798 280.909C112.798 280.659 112.891 280.445 113.077 280.267C113.266 280.089 113.491 280 113.753 280C114.014 280 114.238 280.089 114.423 280.267C114.613 280.445 114.707 280.659 114.707 280.909C114.707 281.159 114.613 281.373 114.423 281.551C114.238 281.729 114.014 281.818 113.753 281.818ZM116.868 292V283.273H118.163V284.591H118.254C118.413 284.159 118.701 283.809 119.118 283.54C119.535 283.271 120.004 283.136 120.527 283.136C120.625 283.136 120.749 283.138 120.896 283.142C121.044 283.146 121.156 283.152 121.232 283.159V284.523C121.186 284.511 121.082 284.494 120.919 284.472C120.76 284.445 120.591 284.432 120.413 284.432C119.989 284.432 119.61 284.521 119.277 284.699C118.947 284.873 118.686 285.116 118.493 285.426C118.304 285.733 118.209 286.083 118.209 286.477V292H116.868ZM129.003 285.227L127.798 285.568C127.723 285.367 127.611 285.172 127.463 284.983C127.319 284.79 127.122 284.631 126.872 284.506C126.622 284.381 126.302 284.318 125.912 284.318C125.378 284.318 124.933 284.441 124.577 284.688C124.224 284.93 124.048 285.239 124.048 285.614C124.048 285.947 124.17 286.21 124.412 286.403C124.654 286.597 125.033 286.758 125.548 286.886L126.844 287.205C127.624 287.394 128.205 287.684 128.588 288.074C128.971 288.46 129.162 288.958 129.162 289.568C129.162 290.068 129.018 290.515 128.73 290.909C128.446 291.303 128.048 291.614 127.537 291.841C127.026 292.068 126.431 292.182 125.753 292.182C124.863 292.182 124.126 291.989 123.543 291.602C122.959 291.216 122.59 290.652 122.435 289.909L123.707 289.591C123.829 290.061 124.058 290.413 124.395 290.648C124.736 290.883 125.181 291 125.73 291C126.355 291 126.851 290.867 127.219 290.602C127.59 290.333 127.776 290.011 127.776 289.636C127.776 289.333 127.67 289.08 127.457 288.875C127.245 288.667 126.92 288.511 126.48 288.409L125.026 288.068C124.226 287.879 123.639 287.585 123.264 287.188C122.893 286.786 122.707 286.284 122.707 285.682C122.707 285.189 122.846 284.754 123.122 284.375C123.402 283.996 123.783 283.699 124.264 283.483C124.749 283.267 125.298 283.159 125.912 283.159C126.776 283.159 127.454 283.348 127.946 283.727C128.442 284.106 128.795 284.606 129.003 285.227ZM134.976 283.273V284.409H130.453V283.273H134.976ZM131.771 281.182H133.112V289.5C133.112 289.879 133.167 290.163 133.277 290.352C133.391 290.538 133.535 290.663 133.709 290.727C133.887 290.788 134.074 290.818 134.271 290.818C134.419 290.818 134.54 290.811 134.635 290.795C134.73 290.777 134.805 290.761 134.862 290.75L135.135 291.955C135.044 291.989 134.917 292.023 134.754 292.057C134.591 292.095 134.385 292.114 134.135 292.114C133.756 292.114 133.385 292.032 133.021 291.869C132.661 291.706 132.362 291.458 132.124 291.125C131.889 290.792 131.771 290.371 131.771 289.864V281.182ZM145.402 292.159C144.652 292.159 143.983 292.03 143.396 291.773C142.813 291.515 142.349 291.157 142.004 290.699C141.663 290.237 141.478 289.701 141.447 289.091H142.879C142.91 289.466 143.038 289.79 143.266 290.062C143.493 290.331 143.79 290.54 144.158 290.688C144.525 290.835 144.932 290.909 145.379 290.909C145.879 290.909 146.322 290.822 146.709 290.648C147.095 290.473 147.398 290.231 147.618 289.92C147.838 289.61 147.947 289.25 147.947 288.841C147.947 288.413 147.841 288.036 147.629 287.71C147.417 287.381 147.107 287.123 146.697 286.938C146.288 286.752 145.788 286.659 145.197 286.659H144.266V285.409H145.197C145.66 285.409 146.065 285.326 146.413 285.159C146.766 284.992 147.04 284.758 147.237 284.455C147.438 284.152 147.538 283.795 147.538 283.386C147.538 282.992 147.451 282.65 147.277 282.358C147.103 282.066 146.857 281.839 146.538 281.676C146.224 281.513 145.853 281.432 145.425 281.432C145.023 281.432 144.644 281.506 144.288 281.653C143.936 281.797 143.648 282.008 143.425 282.284C143.201 282.557 143.08 282.886 143.061 283.273H141.697C141.72 282.663 141.904 282.129 142.249 281.67C142.593 281.208 143.044 280.848 143.601 280.591C144.161 280.333 144.777 280.205 145.447 280.205C146.167 280.205 146.785 280.35 147.3 280.642C147.815 280.93 148.211 281.311 148.487 281.784C148.764 282.258 148.902 282.769 148.902 283.318C148.902 283.973 148.73 284.532 148.385 284.994C148.044 285.456 147.58 285.777 146.993 285.955V286.045C147.728 286.167 148.302 286.479 148.714 286.983C149.127 287.483 149.334 288.102 149.334 288.841C149.334 289.473 149.161 290.042 148.817 290.545C148.476 291.045 148.01 291.439 147.419 291.727C146.828 292.015 146.156 292.159 145.402 292.159Z" fill="#EAECF0"/>
<path d="M214.862 194V182.364H218.794C219.707 182.364 220.453 182.528 221.033 182.858C221.616 183.184 222.048 183.625 222.328 184.182C222.608 184.739 222.749 185.36 222.749 186.045C222.749 186.731 222.608 187.354 222.328 187.915C222.052 188.475 221.624 188.922 221.044 189.256C220.464 189.585 219.722 189.75 218.817 189.75H215.999V188.5H218.771C219.396 188.5 219.898 188.392 220.277 188.176C220.656 187.96 220.93 187.669 221.101 187.301C221.275 186.93 221.362 186.511 221.362 186.045C221.362 185.58 221.275 185.163 221.101 184.795C220.93 184.428 220.654 184.14 220.271 183.932C219.889 183.72 219.381 183.614 218.749 183.614H216.271V194H214.862ZM225.018 194V182.364H228.95C229.859 182.364 230.606 182.519 231.189 182.83C231.772 183.136 232.204 183.559 232.484 184.097C232.765 184.634 232.905 185.246 232.905 185.932C232.905 186.617 232.765 187.225 232.484 187.756C232.204 188.286 231.774 188.703 231.195 189.006C230.615 189.305 229.875 189.455 228.973 189.455H225.791V188.182H228.928C229.549 188.182 230.049 188.091 230.428 187.909C230.81 187.727 231.087 187.47 231.257 187.136C231.431 186.799 231.518 186.398 231.518 185.932C231.518 185.466 231.431 185.059 231.257 184.71C231.083 184.362 230.804 184.093 230.422 183.903C230.039 183.71 229.534 183.614 228.905 183.614H226.428V194H225.018ZM230.496 188.773L233.359 194H231.723L228.905 188.773H230.496ZM236.662 182.364V194H235.253V182.364H236.662ZM239.101 194V192.977L245.374 183.614H239.033V182.364H247.055V183.386L240.783 192.75H247.124V194H239.101ZM249.487 194V182.364H256.51V183.614H250.896V187.545H256.146V188.795H250.896V192.75H256.601V194H249.487ZM263.55 194V182.364H267.482C268.394 182.364 269.141 182.528 269.72 182.858C270.304 183.184 270.735 183.625 271.016 184.182C271.296 184.739 271.436 185.36 271.436 186.045C271.436 186.731 271.296 187.354 271.016 187.915C270.739 188.475 270.311 188.922 269.732 189.256C269.152 189.585 268.41 189.75 267.504 189.75H264.686V188.5H267.459C268.084 188.5 268.586 188.392 268.964 188.176C269.343 187.96 269.618 187.669 269.788 187.301C269.963 186.93 270.05 186.511 270.05 186.045C270.05 185.58 269.963 185.163 269.788 184.795C269.618 184.428 269.341 184.14 268.959 183.932C268.576 183.72 268.069 183.614 267.436 183.614H264.959V194H263.55ZM283.524 188.182C283.524 189.409 283.303 190.47 282.859 191.364C282.416 192.258 281.808 192.947 281.036 193.432C280.263 193.917 279.38 194.159 278.388 194.159C277.395 194.159 276.513 193.917 275.74 193.432C274.967 192.947 274.359 192.258 273.916 191.364C273.473 190.47 273.251 189.409 273.251 188.182C273.251 186.955 273.473 185.894 273.916 185C274.359 184.106 274.967 183.417 275.74 182.932C276.513 182.447 277.395 182.205 278.388 182.205C279.38 182.205 280.263 182.447 281.036 182.932C281.808 183.417 282.416 184.106 282.859 185C283.303 185.894 283.524 186.955 283.524 188.182ZM282.161 188.182C282.161 187.174 281.992 186.324 281.655 185.631C281.321 184.938 280.869 184.413 280.297 184.057C279.729 183.701 279.092 183.523 278.388 183.523C277.683 183.523 277.045 183.701 276.473 184.057C275.905 184.413 275.452 184.938 275.115 185.631C274.782 186.324 274.615 187.174 274.615 188.182C274.615 189.189 274.782 190.04 275.115 190.733C275.452 191.426 275.905 191.951 276.473 192.307C277.045 192.663 277.683 192.841 278.388 192.841C279.092 192.841 279.729 192.663 280.297 192.307C280.869 191.951 281.321 191.426 281.655 190.733C281.992 190.04 282.161 189.189 282.161 188.182ZM295.712 188.182C295.712 189.409 295.49 190.47 295.047 191.364C294.604 192.258 293.996 192.947 293.223 193.432C292.45 193.917 291.568 194.159 290.575 194.159C289.583 194.159 288.7 193.917 287.928 193.432C287.155 192.947 286.547 192.258 286.104 191.364C285.661 190.47 285.439 189.409 285.439 188.182C285.439 186.955 285.661 185.894 286.104 185C286.547 184.106 287.155 183.417 287.928 182.932C288.7 182.447 289.583 182.205 290.575 182.205C291.568 182.205 292.45 182.447 293.223 182.932C293.996 183.417 294.604 184.106 295.047 185C295.49 185.894 295.712 186.955 295.712 188.182ZM294.348 188.182C294.348 187.174 294.179 186.324 293.842 185.631C293.509 184.938 293.056 184.413 292.484 184.057C291.916 183.701 291.28 183.523 290.575 183.523C289.871 183.523 289.232 183.701 288.661 184.057C288.092 184.413 287.64 184.938 287.303 185.631C286.969 186.324 286.803 187.174 286.803 188.182C286.803 189.189 286.969 190.04 287.303 190.733C287.64 191.426 288.092 191.951 288.661 192.307C289.232 192.663 289.871 192.841 290.575 192.841C291.28 192.841 291.916 192.663 292.484 192.307C293.056 191.951 293.509 191.426 293.842 190.733C294.179 190.04 294.348 189.189 294.348 188.182ZM298.081 194V182.364H299.49V192.75H304.899V194H298.081ZM312.058 194H310.581L314.854 182.364H316.308L320.581 194H319.104L315.626 184.205H315.536L312.058 194ZM312.604 189.455H318.558V190.705H312.604V189.455ZM322.393 194V182.364H323.803V192.75H329.212V194H322.393ZM331.393 194V182.364H332.803V192.75H338.212V194H331.393ZM349.759 188.182C349.759 189.409 349.537 190.47 349.094 191.364C348.651 192.258 348.043 192.947 347.27 193.432C346.497 193.917 345.615 194.159 344.622 194.159C343.63 194.159 342.747 193.917 341.974 193.432C341.202 192.947 340.594 192.258 340.151 191.364C339.707 190.47 339.486 189.409 339.486 188.182C339.486 186.955 339.707 185.894 340.151 185C340.594 184.106 341.202 183.417 341.974 182.932C342.747 182.447 343.63 182.205 344.622 182.205C345.615 182.205 346.497 182.447 347.27 182.932C348.043 183.417 348.651 184.106 349.094 185C349.537 185.894 349.759 186.955 349.759 188.182ZM348.395 188.182C348.395 187.174 348.226 186.324 347.889 185.631C347.556 184.938 347.103 184.413 346.531 184.057C345.963 183.701 345.327 183.523 344.622 183.523C343.918 183.523 343.279 183.701 342.707 184.057C342.139 184.413 341.687 184.938 341.349 185.631C341.016 186.324 340.849 187.174 340.849 188.182C340.849 189.189 341.016 190.04 341.349 190.733C341.687 191.426 342.139 191.951 342.707 192.307C343.279 192.663 343.918 192.841 344.622 192.841C345.327 192.841 345.963 192.663 346.531 192.307C347.103 191.951 347.556 191.426 347.889 190.733C348.226 190.04 348.395 189.189 348.395 188.182ZM361.491 186H360.082C359.999 185.595 359.853 185.239 359.645 184.932C359.44 184.625 359.19 184.367 358.895 184.159C358.603 183.947 358.279 183.788 357.923 183.682C357.567 183.576 357.196 183.523 356.81 183.523C356.105 183.523 355.467 183.701 354.895 184.057C354.327 184.413 353.874 184.938 353.537 185.631C353.204 186.324 353.037 187.174 353.037 188.182C353.037 189.189 353.204 190.04 353.537 190.733C353.874 191.426 354.327 191.951 354.895 192.307C355.467 192.663 356.105 192.841 356.81 192.841C357.196 192.841 357.567 192.788 357.923 192.682C358.279 192.576 358.603 192.419 358.895 192.21C359.19 191.998 359.44 191.739 359.645 191.432C359.853 191.121 359.999 190.765 360.082 190.364H361.491C361.385 190.958 361.192 191.491 360.912 191.96C360.632 192.43 360.283 192.83 359.866 193.159C359.45 193.485 358.982 193.733 358.463 193.903C357.948 194.074 357.397 194.159 356.81 194.159C355.817 194.159 354.935 193.917 354.162 193.432C353.389 192.947 352.781 192.258 352.338 191.364C351.895 190.47 351.673 189.409 351.673 188.182C351.673 186.955 351.895 185.894 352.338 185C352.781 184.106 353.389 183.417 354.162 182.932C354.935 182.447 355.817 182.205 356.81 182.205C357.397 182.205 357.948 182.29 358.463 182.46C358.982 182.631 359.45 182.881 359.866 183.21C360.283 183.536 360.632 183.934 360.912 184.403C361.192 184.869 361.385 185.402 361.491 186ZM364.246 194H362.768L367.041 182.364H368.496L372.768 194H371.291L367.814 184.205H367.723L364.246 194ZM364.791 189.455H370.746V190.705H364.791V189.455ZM372.585 183.614V182.364H381.312V183.614H377.653V194H376.244V183.614H372.585ZM384.896 182.364V194H383.487V182.364H384.896ZM397.54 188.182C397.54 189.409 397.318 190.47 396.875 191.364C396.432 192.258 395.824 192.947 395.051 193.432C394.278 193.917 393.396 194.159 392.403 194.159C391.411 194.159 390.528 193.917 389.756 193.432C388.983 192.947 388.375 192.258 387.932 191.364C387.489 190.47 387.267 189.409 387.267 188.182C387.267 186.955 387.489 185.894 387.932 185C388.375 184.106 388.983 183.417 389.756 182.932C390.528 182.447 391.411 182.205 392.403 182.205C393.396 182.205 394.278 182.447 395.051 182.932C395.824 183.417 396.432 184.106 396.875 185C397.318 185.894 397.54 186.955 397.54 188.182ZM396.176 188.182C396.176 187.174 396.008 186.324 395.67 185.631C395.337 184.938 394.884 184.413 394.312 184.057C393.744 183.701 393.108 183.523 392.403 183.523C391.699 183.523 391.061 183.701 390.489 184.057C389.92 184.413 389.468 184.938 389.131 185.631C388.797 186.324 388.631 187.174 388.631 188.182C388.631 189.189 388.797 190.04 389.131 190.733C389.468 191.426 389.92 191.951 390.489 192.307C391.061 192.663 391.699 192.841 392.403 192.841C393.108 192.841 393.744 192.663 394.312 192.307C394.884 191.951 395.337 191.426 395.67 190.733C396.008 190.04 396.176 189.189 396.176 188.182ZM409.136 182.364V194H407.773L401.432 184.864H401.318V194H399.909V182.364H401.273L407.636 191.523H407.75V182.364H409.136Z" fill="#EAECF0"/>
<path d="M345.355 229.455V214.909H346.287V229.455H345.355ZM348.491 219.273C348.423 218.697 348.147 218.25 347.662 217.932C347.177 217.614 346.582 217.455 345.878 217.455C345.363 217.455 344.912 217.538 344.526 217.705C344.143 217.871 343.844 218.1 343.628 218.392C343.416 218.684 343.31 219.015 343.31 219.386C343.31 219.697 343.384 219.964 343.531 220.188C343.683 220.407 343.876 220.591 344.111 220.739C344.346 220.883 344.592 221.002 344.849 221.097C345.107 221.187 345.344 221.261 345.56 221.318L346.741 221.636C347.045 221.716 347.382 221.826 347.753 221.966C348.128 222.106 348.486 222.297 348.827 222.54C349.171 222.778 349.455 223.085 349.679 223.46C349.902 223.835 350.014 224.295 350.014 224.841C350.014 225.47 349.849 226.038 349.52 226.545C349.194 227.053 348.717 227.456 348.088 227.756C347.463 228.055 346.704 228.205 345.81 228.205C344.976 228.205 344.255 228.07 343.645 227.801C343.039 227.532 342.562 227.157 342.213 226.676C341.868 226.195 341.673 225.636 341.628 225H343.082C343.12 225.439 343.268 225.803 343.526 226.091C343.787 226.375 344.116 226.587 344.514 226.727C344.916 226.864 345.348 226.932 345.81 226.932C346.348 226.932 346.83 226.845 347.259 226.67C347.687 226.492 348.026 226.246 348.276 225.932C348.526 225.614 348.651 225.242 348.651 224.818C348.651 224.432 348.543 224.117 348.327 223.875C348.111 223.633 347.827 223.436 347.474 223.284C347.122 223.133 346.741 223 346.332 222.886L344.901 222.477C343.991 222.216 343.272 221.843 342.741 221.358C342.211 220.873 341.946 220.239 341.946 219.455C341.946 218.803 342.122 218.235 342.474 217.75C342.83 217.261 343.308 216.883 343.906 216.614C344.509 216.341 345.181 216.205 345.923 216.205C346.673 216.205 347.34 216.339 347.923 216.608C348.507 216.873 348.969 217.237 349.31 217.699C349.654 218.161 349.836 218.686 349.855 219.273H348.491ZM352.126 228V226.977L355.967 222.773C356.418 222.28 356.789 221.852 357.081 221.489C357.373 221.121 357.589 220.777 357.729 220.455C357.873 220.129 357.945 219.788 357.945 219.432C357.945 219.023 357.846 218.669 357.649 218.369C357.456 218.07 357.191 217.839 356.854 217.676C356.517 217.513 356.138 217.432 355.717 217.432C355.27 217.432 354.88 217.525 354.547 217.71C354.217 217.892 353.962 218.148 353.78 218.477C353.602 218.807 353.513 219.193 353.513 219.636H352.172C352.172 218.955 352.329 218.356 352.643 217.841C352.958 217.326 353.386 216.924 353.928 216.636C354.473 216.348 355.085 216.205 355.763 216.205C356.445 216.205 357.049 216.348 357.575 216.636C358.102 216.924 358.515 217.312 358.814 217.801C359.113 218.29 359.263 218.833 359.263 219.432C359.263 219.86 359.185 220.278 359.03 220.688C358.878 221.093 358.613 221.545 358.234 222.045C357.859 222.542 357.339 223.148 356.672 223.864L354.058 226.659V226.75H359.467V228H352.126ZM365.609 228.159C364.753 228.159 364.024 227.926 363.422 227.46C362.82 226.991 362.359 226.311 362.041 225.42C361.723 224.527 361.564 223.447 361.564 222.182C361.564 220.924 361.723 219.85 362.041 218.96C362.363 218.066 362.825 217.384 363.428 216.915C364.034 216.441 364.761 216.205 365.609 216.205C366.458 216.205 367.183 216.441 367.786 216.915C368.392 217.384 368.854 218.066 369.172 218.96C369.494 219.85 369.655 220.924 369.655 222.182C369.655 223.447 369.496 224.527 369.178 225.42C368.859 226.311 368.399 226.991 367.797 227.46C367.195 227.926 366.465 228.159 365.609 228.159ZM365.609 226.909C366.458 226.909 367.117 226.5 367.587 225.682C368.056 224.864 368.291 223.697 368.291 222.182C368.291 221.174 368.183 220.316 367.967 219.608C367.755 218.9 367.448 218.36 367.047 217.989C366.649 217.617 366.17 217.432 365.609 217.432C364.768 217.432 364.111 217.847 363.638 218.676C363.164 219.502 362.928 220.67 362.928 222.182C362.928 223.189 363.034 224.045 363.246 224.75C363.458 225.455 363.763 225.991 364.161 226.358C364.562 226.725 365.045 226.909 365.609 226.909ZM384.473 220C384.348 219.617 384.183 219.275 383.979 218.972C383.778 218.665 383.537 218.403 383.257 218.188C382.981 217.972 382.666 217.807 382.314 217.693C381.962 217.58 381.575 217.523 381.155 217.523C380.465 217.523 379.839 217.701 379.274 218.057C378.71 218.413 378.261 218.938 377.928 219.631C377.594 220.324 377.428 221.174 377.428 222.182C377.428 223.189 377.596 224.04 377.933 224.733C378.27 225.426 378.727 225.951 379.303 226.307C379.878 226.663 380.526 226.841 381.246 226.841C381.912 226.841 382.5 226.699 383.007 226.415C383.518 226.127 383.916 225.722 384.2 225.199C384.488 224.672 384.632 224.053 384.632 223.341L385.064 223.432H381.564V222.182H385.996V223.432C385.996 224.39 385.791 225.223 385.382 225.932C384.977 226.64 384.416 227.189 383.7 227.58C382.988 227.966 382.17 228.159 381.246 228.159C380.215 228.159 379.31 227.917 378.53 227.432C377.753 226.947 377.147 226.258 376.712 225.364C376.28 224.47 376.064 223.409 376.064 222.182C376.064 221.261 376.187 220.434 376.433 219.699C376.683 218.96 377.036 218.331 377.49 217.812C377.945 217.294 378.482 216.896 379.104 216.619C379.725 216.343 380.409 216.205 381.155 216.205C381.768 216.205 382.34 216.297 382.871 216.483C383.405 216.665 383.88 216.924 384.297 217.261C384.717 217.595 385.068 217.994 385.348 218.46C385.628 218.922 385.821 219.436 385.928 220H384.473ZM391.773 228.182C390.985 228.182 390.294 227.994 389.699 227.619C389.108 227.244 388.646 226.72 388.312 226.045C387.983 225.371 387.818 224.583 387.818 223.682C387.818 222.773 387.983 221.979 388.312 221.301C388.646 220.623 389.108 220.097 389.699 219.722C390.294 219.347 390.985 219.159 391.773 219.159C392.561 219.159 393.25 219.347 393.841 219.722C394.436 220.097 394.898 220.623 395.227 221.301C395.561 221.979 395.727 222.773 395.727 223.682C395.727 224.583 395.561 225.371 395.227 226.045C394.898 226.72 394.436 227.244 393.841 227.619C393.25 227.994 392.561 228.182 391.773 228.182ZM391.773 226.977C392.371 226.977 392.864 226.824 393.25 226.517C393.636 226.21 393.922 225.807 394.108 225.307C394.294 224.807 394.386 224.265 394.386 223.682C394.386 223.098 394.294 222.555 394.108 222.051C393.922 221.547 393.636 221.14 393.25 220.83C392.864 220.519 392.371 220.364 391.773 220.364C391.174 220.364 390.682 220.519 390.295 220.83C389.909 221.14 389.623 221.547 389.438 222.051C389.252 222.555 389.159 223.098 389.159 223.682C389.159 224.265 389.252 224.807 389.438 225.307C389.623 225.807 389.909 226.21 390.295 226.517C390.682 226.824 391.174 226.977 391.773 226.977ZM399.115 216.364V228H397.774V216.364H399.115ZM404.866 228.182C404.139 228.182 403.497 227.998 402.94 227.631C402.384 227.259 401.948 226.737 401.634 226.062C401.319 225.384 401.162 224.583 401.162 223.659C401.162 222.742 401.319 221.947 401.634 221.273C401.948 220.598 402.385 220.078 402.946 219.71C403.507 219.343 404.154 219.159 404.889 219.159C405.457 219.159 405.906 219.254 406.236 219.443C406.569 219.629 406.823 219.841 406.997 220.08C407.175 220.314 407.313 220.508 407.412 220.659H407.526V216.364H408.866V228H407.571V226.659H407.412C407.313 226.818 407.173 227.019 406.991 227.261C406.81 227.5 406.55 227.714 406.213 227.903C405.876 228.089 405.427 228.182 404.866 228.182ZM405.048 226.977C405.586 226.977 406.041 226.837 406.412 226.557C406.783 226.273 407.065 225.881 407.259 225.381C407.452 224.877 407.548 224.295 407.548 223.636C407.548 222.985 407.454 222.415 407.264 221.926C407.075 221.434 406.795 221.051 406.423 220.778C406.052 220.502 405.594 220.364 405.048 220.364C404.48 220.364 404.007 220.509 403.628 220.801C403.253 221.089 402.971 221.481 402.781 221.977C402.596 222.47 402.503 223.023 402.503 223.636C402.503 224.258 402.598 224.822 402.787 225.33C402.98 225.833 403.264 226.235 403.639 226.534C404.018 226.83 404.488 226.977 405.048 226.977Z" fill="#EAECF0"/>
<path d="M341.238 261.455V246.909H342.17V261.455H341.238ZM344.374 251.273C344.306 250.697 344.03 250.25 343.545 249.932C343.06 249.614 342.465 249.455 341.761 249.455C341.246 249.455 340.795 249.538 340.408 249.705C340.026 249.871 339.727 250.1 339.511 250.392C339.299 250.684 339.192 251.015 339.192 251.386C339.192 251.697 339.266 251.964 339.414 252.188C339.566 252.407 339.759 252.591 339.994 252.739C340.228 252.883 340.475 253.002 340.732 253.097C340.99 253.187 341.227 253.261 341.442 253.318L342.624 253.636C342.927 253.716 343.264 253.826 343.636 253.966C344.011 254.106 344.369 254.297 344.71 254.54C345.054 254.778 345.338 255.085 345.562 255.46C345.785 255.835 345.897 256.295 345.897 256.841C345.897 257.47 345.732 258.038 345.403 258.545C345.077 259.053 344.6 259.456 343.971 259.756C343.346 260.055 342.586 260.205 341.692 260.205C340.859 260.205 340.138 260.07 339.528 259.801C338.922 259.532 338.444 259.157 338.096 258.676C337.751 258.195 337.556 257.636 337.511 257H338.965C339.003 257.439 339.151 257.803 339.408 258.091C339.67 258.375 339.999 258.587 340.397 258.727C340.799 258.864 341.23 258.932 341.692 258.932C342.23 258.932 342.713 258.845 343.141 258.67C343.569 258.492 343.908 258.246 344.158 257.932C344.408 257.614 344.533 257.242 344.533 256.818C344.533 256.432 344.425 256.117 344.21 255.875C343.994 255.633 343.71 255.436 343.357 255.284C343.005 255.133 342.624 255 342.215 254.886L340.783 254.477C339.874 254.216 339.155 253.843 338.624 253.358C338.094 252.873 337.829 252.239 337.829 251.455C337.829 250.803 338.005 250.235 338.357 249.75C338.713 249.261 339.191 248.883 339.789 248.614C340.391 248.341 341.064 248.205 341.806 248.205C342.556 248.205 343.223 248.339 343.806 248.608C344.389 248.873 344.852 249.237 345.192 249.699C345.537 250.161 345.719 250.686 345.738 251.273H344.374ZM352.1 248.364V260H350.691V249.841H350.623L347.782 251.727V250.295L350.691 248.364H352.1ZM359.242 260.159C358.386 260.159 357.657 259.926 357.055 259.46C356.452 258.991 355.992 258.311 355.674 257.42C355.356 256.527 355.197 255.447 355.197 254.182C355.197 252.924 355.356 251.85 355.674 250.96C355.996 250.066 356.458 249.384 357.06 248.915C357.666 248.441 358.394 248.205 359.242 248.205C360.091 248.205 360.816 248.441 361.418 248.915C362.024 249.384 362.487 250.066 362.805 250.96C363.127 251.85 363.288 252.924 363.288 254.182C363.288 255.447 363.129 256.527 362.81 257.42C362.492 258.311 362.032 258.991 361.43 259.46C360.827 259.926 360.098 260.159 359.242 260.159ZM359.242 258.909C360.091 258.909 360.75 258.5 361.219 257.682C361.689 256.864 361.924 255.697 361.924 254.182C361.924 253.174 361.816 252.316 361.6 251.608C361.388 250.9 361.081 250.36 360.68 249.989C360.282 249.617 359.803 249.432 359.242 249.432C358.401 249.432 357.744 249.847 357.271 250.676C356.797 251.502 356.56 252.67 356.56 254.182C356.56 255.189 356.666 256.045 356.879 256.75C357.091 257.455 357.396 257.991 357.793 258.358C358.195 258.725 358.678 258.909 359.242 258.909ZM376.515 251.273C376.447 250.697 376.17 250.25 375.685 249.932C375.201 249.614 374.606 249.455 373.901 249.455C373.386 249.455 372.935 249.538 372.549 249.705C372.166 249.871 371.867 250.1 371.651 250.392C371.439 250.684 371.333 251.015 371.333 251.386C371.333 251.697 371.407 251.964 371.555 252.188C371.706 252.407 371.899 252.591 372.134 252.739C372.369 252.883 372.615 253.002 372.873 253.097C373.13 253.187 373.367 253.261 373.583 253.318L374.765 253.636C375.068 253.716 375.405 253.826 375.776 253.966C376.151 254.106 376.509 254.297 376.85 254.54C377.195 254.778 377.479 255.085 377.702 255.46C377.926 255.835 378.038 256.295 378.038 256.841C378.038 257.47 377.873 258.038 377.543 258.545C377.218 259.053 376.74 259.456 376.112 259.756C375.487 260.055 374.727 260.205 373.833 260.205C373 260.205 372.278 260.07 371.668 259.801C371.062 259.532 370.585 259.157 370.237 258.676C369.892 258.195 369.697 257.636 369.651 257H371.106C371.144 257.439 371.291 257.803 371.549 258.091C371.81 258.375 372.14 258.587 372.538 258.727C372.939 258.864 373.371 258.932 373.833 258.932C374.371 258.932 374.854 258.845 375.282 258.67C375.71 258.492 376.049 258.246 376.299 257.932C376.549 257.614 376.674 257.242 376.674 256.818C376.674 256.432 376.566 256.117 376.35 255.875C376.134 255.633 375.85 255.436 375.498 255.284C375.146 255.133 374.765 255 374.356 254.886L372.924 254.477C372.015 254.216 371.295 253.843 370.765 253.358C370.235 252.873 369.969 252.239 369.969 251.455C369.969 250.803 370.146 250.235 370.498 249.75C370.854 249.261 371.331 248.883 371.93 248.614C372.532 248.341 373.204 248.205 373.947 248.205C374.697 248.205 375.363 248.339 375.947 248.608C376.53 248.873 376.992 249.237 377.333 249.699C377.678 250.161 377.86 250.686 377.879 251.273H376.515ZM380.173 260V251.273H381.513V260H380.173ZM380.854 249.818C380.593 249.818 380.368 249.729 380.178 249.551C379.993 249.373 379.9 249.159 379.9 248.909C379.9 248.659 379.993 248.445 380.178 248.267C380.368 248.089 380.593 248 380.854 248C381.116 248 381.339 248.089 381.525 248.267C381.714 248.445 381.809 248.659 381.809 248.909C381.809 249.159 381.714 249.373 381.525 249.551C381.339 249.729 381.116 249.818 380.854 249.818ZM385.31 248.364V260H383.969V248.364H385.31ZM394.903 251.273L391.675 260H390.312L387.085 251.273H388.539L390.948 258.227H391.039L393.448 251.273H394.903ZM400.019 260.182C399.178 260.182 398.453 259.996 397.843 259.625C397.237 259.25 396.769 258.727 396.44 258.057C396.114 257.383 395.951 256.598 395.951 255.705C395.951 254.811 396.114 254.023 396.44 253.341C396.769 252.655 397.228 252.121 397.815 251.739C398.406 251.352 399.095 251.159 399.883 251.159C400.337 251.159 400.786 251.235 401.229 251.386C401.673 251.538 402.076 251.784 402.44 252.125C402.803 252.462 403.093 252.909 403.309 253.466C403.525 254.023 403.633 254.708 403.633 255.523V256.091H396.906V254.932H402.269C402.269 254.439 402.171 254 401.974 253.614C401.781 253.227 401.504 252.922 401.144 252.699C400.788 252.475 400.368 252.364 399.883 252.364C399.349 252.364 398.887 252.496 398.496 252.761C398.11 253.023 397.813 253.364 397.604 253.784C397.396 254.205 397.292 254.655 397.292 255.136V255.909C397.292 256.568 397.406 257.127 397.633 257.585C397.864 258.04 398.184 258.386 398.593 258.625C399.002 258.86 399.478 258.977 400.019 258.977C400.371 258.977 400.69 258.928 400.974 258.83C401.262 258.727 401.51 258.576 401.718 258.375C401.926 258.17 402.087 257.917 402.201 257.614L403.496 257.977C403.36 258.417 403.131 258.803 402.809 259.136C402.487 259.466 402.089 259.723 401.616 259.909C401.142 260.091 400.61 260.182 400.019 260.182ZM405.673 260V251.273H406.968V252.591H407.059C407.218 252.159 407.506 251.809 407.923 251.54C408.339 251.271 408.809 251.136 409.332 251.136C409.43 251.136 409.553 251.138 409.701 251.142C409.849 251.146 409.96 251.152 410.036 251.159V252.523C409.991 252.511 409.887 252.494 409.724 252.472C409.565 252.445 409.396 252.432 409.218 252.432C408.794 252.432 408.415 252.521 408.082 252.699C407.752 252.873 407.491 253.116 407.298 253.426C407.108 253.733 407.013 254.083 407.013 254.477V260H405.673Z" fill="#EAECF0"/>
<path d="M338.058 293.455V278.909H338.99V293.455H338.058ZM341.195 283.273C341.126 282.697 340.85 282.25 340.365 281.932C339.88 281.614 339.286 281.455 338.581 281.455C338.066 281.455 337.615 281.538 337.229 281.705C336.846 281.871 336.547 282.1 336.331 282.392C336.119 282.684 336.013 283.015 336.013 283.386C336.013 283.697 336.087 283.964 336.234 284.188C336.386 284.407 336.579 284.591 336.814 284.739C337.049 284.883 337.295 285.002 337.553 285.097C337.81 285.187 338.047 285.261 338.263 285.318L339.445 285.636C339.748 285.716 340.085 285.826 340.456 285.966C340.831 286.106 341.189 286.297 341.53 286.54C341.875 286.778 342.159 287.085 342.382 287.46C342.606 287.835 342.717 288.295 342.717 288.841C342.717 289.47 342.553 290.038 342.223 290.545C341.897 291.053 341.42 291.456 340.791 291.756C340.166 292.055 339.407 292.205 338.513 292.205C337.679 292.205 336.958 292.07 336.348 291.801C335.742 291.532 335.265 291.157 334.916 290.676C334.571 290.195 334.376 289.636 334.331 289H335.786C335.823 289.439 335.971 289.803 336.229 290.091C336.49 290.375 336.82 290.587 337.217 290.727C337.619 290.864 338.051 290.932 338.513 290.932C339.051 290.932 339.534 290.845 339.962 290.67C340.39 290.492 340.729 290.246 340.979 289.932C341.229 289.614 341.354 289.242 341.354 288.818C341.354 288.432 341.246 288.117 341.03 287.875C340.814 287.633 340.53 287.436 340.178 287.284C339.825 287.133 339.445 287 339.036 286.886L337.604 286.477C336.695 286.216 335.975 285.843 335.445 285.358C334.914 284.873 334.649 284.239 334.649 283.455C334.649 282.803 334.825 282.235 335.178 281.75C335.534 281.261 336.011 280.883 336.609 280.614C337.212 280.341 337.884 280.205 338.626 280.205C339.376 280.205 340.043 280.339 340.626 280.608C341.21 280.873 341.672 281.237 342.013 281.699C342.357 282.161 342.539 282.686 342.558 283.273H341.195ZM348.466 292.159C347.799 292.159 347.199 292.027 346.665 291.761C346.131 291.496 345.703 291.133 345.381 290.67C345.059 290.208 344.883 289.682 344.852 289.091H346.216C346.269 289.617 346.508 290.053 346.932 290.398C347.36 290.739 347.871 290.909 348.466 290.909C348.943 290.909 349.367 290.797 349.739 290.574C350.114 290.35 350.407 290.044 350.619 289.653C350.835 289.259 350.943 288.814 350.943 288.318C350.943 287.811 350.831 287.358 350.608 286.96C350.388 286.559 350.085 286.242 349.699 286.011C349.313 285.78 348.871 285.663 348.375 285.659C348.019 285.655 347.653 285.71 347.278 285.824C346.903 285.934 346.595 286.076 346.352 286.25L345.034 286.091L345.739 280.364H351.784V281.614H346.92L346.511 285.045H346.58C346.818 284.856 347.117 284.699 347.477 284.574C347.837 284.449 348.212 284.386 348.602 284.386C349.314 284.386 349.949 284.557 350.506 284.898C351.066 285.235 351.506 285.697 351.824 286.284C352.146 286.871 352.307 287.542 352.307 288.295C352.307 289.038 352.14 289.701 351.807 290.284C351.477 290.864 351.023 291.322 350.443 291.659C349.864 291.992 349.205 292.159 348.466 292.159ZM359.268 292V280.364H363.337C364.147 280.364 364.816 280.504 365.342 280.784C365.869 281.061 366.261 281.434 366.518 281.903C366.776 282.369 366.905 282.886 366.905 283.455C366.905 283.955 366.816 284.367 366.638 284.693C366.464 285.019 366.232 285.277 365.945 285.466C365.661 285.655 365.352 285.795 365.018 285.886V286C365.375 286.023 365.732 286.148 366.092 286.375C366.452 286.602 366.753 286.928 366.996 287.352C367.238 287.777 367.359 288.295 367.359 288.909C367.359 289.492 367.227 290.017 366.962 290.483C366.696 290.949 366.278 291.318 365.706 291.591C365.134 291.864 364.39 292 363.473 292H359.268ZM360.678 290.75H363.473C364.393 290.75 365.047 290.572 365.433 290.216C365.823 289.856 366.018 289.42 366.018 288.909C366.018 288.515 365.918 288.152 365.717 287.818C365.517 287.481 365.231 287.212 364.859 287.011C364.488 286.807 364.049 286.705 363.541 286.705H360.678V290.75ZM360.678 285.477H363.291C363.715 285.477 364.098 285.394 364.439 285.227C364.784 285.061 365.056 284.826 365.257 284.523C365.462 284.22 365.564 283.864 365.564 283.455C365.564 282.943 365.386 282.509 365.03 282.153C364.674 281.794 364.109 281.614 363.337 281.614H360.678V285.477ZM369.493 292V283.273H370.788V284.591H370.879C371.038 284.159 371.326 283.809 371.743 283.54C372.16 283.271 372.629 283.136 373.152 283.136C373.25 283.136 373.374 283.138 373.521 283.142C373.669 283.146 373.781 283.152 373.857 283.159V284.523C373.811 284.511 373.707 284.494 373.544 284.472C373.385 284.445 373.216 284.432 373.038 284.432C372.614 284.432 372.235 284.521 371.902 284.699C371.572 284.873 371.311 285.116 371.118 285.426C370.929 285.733 370.834 286.083 370.834 286.477V292H369.493ZM378.726 292.182C377.938 292.182 377.247 291.994 376.652 291.619C376.061 291.244 375.599 290.72 375.266 290.045C374.936 289.371 374.771 288.583 374.771 287.682C374.771 286.773 374.936 285.979 375.266 285.301C375.599 284.623 376.061 284.097 376.652 283.722C377.247 283.347 377.938 283.159 378.726 283.159C379.514 283.159 380.203 283.347 380.794 283.722C381.389 284.097 381.851 284.623 382.18 285.301C382.514 285.979 382.68 286.773 382.68 287.682C382.68 288.583 382.514 289.371 382.18 290.045C381.851 290.72 381.389 291.244 380.794 291.619C380.203 291.994 379.514 292.182 378.726 292.182ZM378.726 290.977C379.324 290.977 379.817 290.824 380.203 290.517C380.589 290.21 380.875 289.807 381.061 289.307C381.247 288.807 381.339 288.265 381.339 287.682C381.339 287.098 381.247 286.555 381.061 286.051C380.875 285.547 380.589 285.14 380.203 284.83C379.817 284.519 379.324 284.364 378.726 284.364C378.127 284.364 377.635 284.519 377.249 284.83C376.862 285.14 376.576 285.547 376.391 286.051C376.205 286.555 376.112 287.098 376.112 287.682C376.112 288.265 376.205 288.807 376.391 289.307C376.576 289.807 376.862 290.21 377.249 290.517C377.635 290.824 378.127 290.977 378.726 290.977ZM386.068 286.75V292H384.727V283.273H386.023V284.636H386.136C386.341 284.193 386.652 283.837 387.068 283.568C387.485 283.295 388.023 283.159 388.682 283.159C389.273 283.159 389.79 283.28 390.233 283.523C390.676 283.761 391.021 284.125 391.267 284.614C391.513 285.098 391.636 285.712 391.636 286.455V292H390.295V286.545C390.295 285.86 390.117 285.326 389.761 284.943C389.405 284.557 388.917 284.364 388.295 284.364C387.867 284.364 387.485 284.456 387.148 284.642C386.814 284.828 386.551 285.098 386.358 285.455C386.165 285.811 386.068 286.242 386.068 286.75ZM393.837 292V290.977L398.791 284.614V284.523H393.996V283.273H400.518V284.341L395.7 290.659V290.75H400.678V292H393.837ZM406.152 292.182C405.311 292.182 404.586 291.996 403.976 291.625C403.37 291.25 402.902 290.727 402.572 290.057C402.247 289.383 402.084 288.598 402.084 287.705C402.084 286.811 402.247 286.023 402.572 285.341C402.902 284.655 403.36 284.121 403.947 283.739C404.538 283.352 405.228 283.159 406.016 283.159C406.47 283.159 406.919 283.235 407.362 283.386C407.805 283.538 408.209 283.784 408.572 284.125C408.936 284.462 409.226 284.909 409.442 285.466C409.658 286.023 409.766 286.708 409.766 287.523V288.091H403.038V286.932H408.402C408.402 286.439 408.304 286 408.107 285.614C407.913 285.227 407.637 284.922 407.277 284.699C406.921 284.475 406.5 284.364 406.016 284.364C405.482 284.364 405.019 284.496 404.629 284.761C404.243 285.023 403.946 285.364 403.737 285.784C403.529 286.205 403.425 286.655 403.425 287.136V287.909C403.425 288.568 403.538 289.127 403.766 289.585C403.997 290.04 404.317 290.386 404.726 290.625C405.135 290.86 405.61 290.977 406.152 290.977C406.504 290.977 406.822 290.928 407.107 290.83C407.394 290.727 407.643 290.576 407.851 290.375C408.059 290.17 408.22 289.917 408.334 289.614L409.629 289.977C409.493 290.417 409.264 290.803 408.942 291.136C408.62 291.466 408.222 291.723 407.749 291.909C407.275 292.091 406.743 292.182 406.152 292.182Z" fill="#EAECF0"/>
<defs>
<filter id="filter0_bd_1_22968" x="-17" y="-21" width="480" height="430" filterUnits="userSpaceOnUse" color-interpolation-filters="sRGB">
<feFlood flood-opacity="0" result="BackgroundImageFix"/>
<feGaussianBlur in="BackgroundImageFix" stdDeviation="20"/>
<feComposite in2="SourceAlpha" operator="in" result="effect1_backgroundBlur_1_22968"/>
<feColorMatrix in="SourceAlpha" type="matrix" values="0 0 0 0 0 0 0 0 0 0 0 0 0 0 0 0 0 0 127 0" result="hardAlpha"/>
<feMorphology radius="1" operator="erode" in="SourceAlpha" result="effect2_dropShadow_1_22968"/>
<feOffset dy="4"/>
<feGaussianBlur stdDeviation="12"/>
<feComposite in2="hardAlpha" operator="out"/>
<feColorMatrix type="matrix" values="0 0 0 0 0.0823529 0 0 0 0 0.0941176 0 0 0 0 0.12549 0 0 0 0.2 0"/>
<feBlend mode="normal" in2="effect1_backgroundBlur_1_22968" result="effect2_dropShadow_1_22968"/>
<feBlend mode="normal" in="SourceGraphic" in2="effect2_dropShadow_1_22968" result="shape"/>
</filter>
<linearGradient id="paint0_linear_1_22968" x1="140" y1="19" x2="368.628" y2="323.589" gradientUnits="userSpaceOnUse">
<stop stop-color="#414653" stop-opacity="0.4"/>
<stop offset="1" stop-color="#383D4A" stop-opacity="0.1"/>
</linearGradient>
<linearGradient id="paint1_linear_1_22968" x1="138" y1="19" x2="422.006" y2="302.896" gradientUnits="userSpaceOnUse">
<stop stop-color="#151820" stop-opacity="0.2"/>
<stop offset="0.337074" stop-color="#151820" stop-opacity="0.5"/>
<stop offset="0.659796" stop-color="#151820" stop-opacity="0.5"/>
<stop offset="1" stop-color="#151820" stop-opacity="0"/>
</linearGradient>
<linearGradient id="paint2_linear_1_22968" x1="172.746" y1="79.25" x2="300.178" y2="90.5894" gradientUnits="userSpaceOnUse">
<stop stop-color="#9F2DFE"/>
<stop offset="1" stop-color="#3BB2F9"/>
</linearGradient>
<linearGradient id="paint3_linear_1_22968" x1="172.746" y1="79.25" x2="300.178" y2="90.5894" gradientUnits="userSpaceOnUse">
<stop stop-color="#9F2DFE"/>
<stop offset="1" stop-color="#3BB2F9"/>
</linearGradient>
<linearGradient id="paint4_linear_1_22968" x1="172.746" y1="79.25" x2="300.178" y2="90.5894" gradientUnits="userSpaceOnUse">
<stop stop-color="#9F2DFE"/>
<stop offset="1" stop-color="#3BB2F9"/>
</linearGradient>
<linearGradient id="paint5_linear_1_22968" x1="172.746" y1="79.25" x2="300.178" y2="90.5894" gradientUnits="userSpaceOnUse">
<stop stop-color="#9F2DFE"/>
<stop offset="1" stop-color="#3BB2F9"/>
</linearGradient>
<linearGradient id="paint6_linear_1_22968" x1="172.746" y1="79.25" x2="300.178" y2="90.5894" gradientUnits="userSpaceOnUse">
<stop stop-color="#9F2DFE"/>
<stop offset="1" stop-color="#3BB2F9"/>
</linearGradient>
<linearGradient id="paint7_linear_1_22968" x1="172.746" y1="79.25" x2="300.178" y2="90.5894" gradientUnits="userSpaceOnUse">
<stop stop-color="#9F2DFE"/>
<stop offset="1" stop-color="#3BB2F9"/>
</linearGradient>
<linearGradient id="paint8_linear_1_22968" x1="172.746" y1="79.25" x2="300.178" y2="90.5894" gradientUnits="userSpaceOnUse">
<stop stop-color="#9F2DFE"/>
<stop offset="1" stop-color="#3BB2F9"/>
</linearGradient>
</defs>
</svg>
