<svg width="446" height="319" viewBox="0 0 446 319" fill="none" xmlns="http://www.w3.org/2000/svg">
<g filter="url(#filter0_bd_1_22930)">
<rect x="23" y="19" width="400" height="273" rx="24" fill="url(#paint0_linear_1_22930)" shape-rendering="crispEdges"/>
<rect x="23.5" y="19.5" width="399" height="272" rx="23.5" stroke="url(#paint1_linear_1_22930)" shape-rendering="crispEdges"/>
</g>
<circle cx="116" cy="69" r="18" fill="url(#paint2_linear_1_22930)"/>
<path d="M116.372 63.2045C116.971 63.2045 117.546 63.3049 118.099 63.5057C118.656 63.7064 119.152 64.0265 119.588 64.4659C120.027 64.9053 120.374 65.4886 120.628 66.2159C120.885 66.9394 121.016 67.8277 121.02 68.8807C121.02 69.8693 120.908 70.7519 120.685 71.5284C120.465 72.3011 120.149 72.9583 119.736 73.5C119.323 74.0417 118.825 74.4545 118.241 74.7386C117.658 75.0189 117.007 75.1591 116.287 75.1591C115.51 75.1591 114.825 75.0095 114.23 74.7102C113.635 74.4072 113.156 73.9962 112.793 73.4773C112.433 72.9545 112.215 72.3674 112.139 71.7159H114.565C114.66 72.1402 114.859 72.4697 115.162 72.7045C115.465 72.9356 115.84 73.0511 116.287 73.0511C117.045 73.0511 117.62 72.7216 118.014 72.0625C118.408 71.3996 118.607 70.4924 118.611 69.3409H118.531C118.357 69.6818 118.122 69.9754 117.827 70.2216C117.531 70.464 117.192 70.6515 116.81 70.7841C116.431 70.9167 116.027 70.983 115.599 70.983C114.914 70.983 114.302 70.822 113.764 70.5C113.226 70.178 112.802 69.7348 112.491 69.1705C112.181 68.6061 112.026 67.9621 112.026 67.2386C112.022 66.4583 112.202 65.7633 112.565 65.1534C112.929 64.5436 113.437 64.0663 114.088 63.7216C114.743 63.3731 115.505 63.2008 116.372 63.2045ZM116.389 65.1364C116.007 65.1364 115.666 65.2273 115.366 65.4091C115.071 65.5909 114.836 65.8352 114.662 66.142C114.491 66.4489 114.408 66.7917 114.412 67.1705C114.412 67.553 114.495 67.8977 114.662 68.2045C114.832 68.5076 115.063 68.75 115.355 68.9318C115.651 69.1098 115.988 69.1989 116.366 69.1989C116.651 69.1989 116.914 69.1458 117.156 69.0398C117.399 68.9337 117.609 68.7879 117.787 68.6023C117.969 68.4129 118.111 68.1951 118.213 67.9489C118.315 67.7027 118.366 67.4413 118.366 67.1648C118.363 66.7973 118.276 66.4602 118.105 66.1534C117.935 65.8466 117.7 65.6004 117.401 65.4148C117.101 65.2292 116.764 65.1364 116.389 65.1364Z" fill="white"/>
<circle cx="274" cy="69" r="18" fill="url(#paint3_linear_1_22930)"/>
<path d="M276.092 63.3636V75H273.631V65.6989H273.563L270.898 67.3693V65.1875L273.779 63.3636H276.092Z" fill="white"/>
<circle cx="168" cy="69" r="18" fill="url(#paint4_linear_1_22930)"/>
<path d="M168.495 75.1591C167.62 75.1591 166.842 75.017 166.16 74.733C165.482 74.4451 164.95 74.053 164.563 73.5568C164.177 73.0606 163.984 72.4981 163.984 71.8693C163.984 71.3845 164.094 70.9394 164.313 70.5341C164.537 70.125 164.84 69.786 165.222 69.517C165.605 69.2443 166.033 69.0701 166.506 68.9943V68.9148C165.885 68.7898 165.381 68.4886 164.995 68.0114C164.609 67.5303 164.415 66.9716 164.415 66.3352C164.415 65.733 164.592 65.197 164.944 64.7273C165.296 64.2538 165.779 63.8826 166.393 63.6136C167.01 63.3409 167.711 63.2045 168.495 63.2045C169.279 63.2045 169.978 63.3409 170.592 63.6136C171.209 63.8864 171.694 64.2595 172.046 64.733C172.398 65.2027 172.576 65.7367 172.58 66.3352C172.576 66.9754 172.379 67.5341 171.989 68.0114C171.599 68.4886 171.099 68.7898 170.489 68.9148V68.9943C170.955 69.0701 171.378 69.2443 171.756 69.517C172.139 69.786 172.442 70.125 172.665 70.5341C172.893 70.9394 173.008 71.3845 173.012 71.8693C173.008 72.4981 172.813 73.0606 172.427 73.5568C172.04 74.053 171.506 74.4451 170.825 74.733C170.147 75.017 169.37 75.1591 168.495 75.1591ZM168.495 73.3523C168.885 73.3523 169.226 73.2822 169.518 73.142C169.809 72.9981 170.037 72.8011 170.2 72.5511C170.366 72.2973 170.45 72.0057 170.45 71.6761C170.45 71.339 170.364 71.0417 170.194 70.7841C170.023 70.5227 169.792 70.3182 169.501 70.1705C169.209 70.0189 168.874 69.9432 168.495 69.9432C168.12 69.9432 167.785 70.0189 167.489 70.1705C167.194 70.3182 166.961 70.5227 166.79 70.7841C166.624 71.0417 166.54 71.339 166.54 71.6761C166.54 72.0057 166.622 72.2973 166.785 72.5511C166.948 72.8011 167.177 72.9981 167.472 73.142C167.768 73.2822 168.109 73.3523 168.495 73.3523ZM168.495 68.1534C168.821 68.1534 169.111 68.0871 169.364 67.9545C169.618 67.822 169.817 67.6383 169.961 67.4034C170.105 67.1686 170.177 66.8977 170.177 66.5909C170.177 66.2879 170.105 66.0227 169.961 65.7955C169.817 65.5644 169.62 65.3845 169.37 65.2557C169.12 65.1231 168.828 65.0568 168.495 65.0568C168.165 65.0568 167.874 65.1231 167.62 65.2557C167.366 65.3845 167.167 65.5644 167.023 65.7955C166.883 66.0227 166.813 66.2879 166.813 66.5909C166.813 66.8977 166.885 67.1686 167.029 67.4034C167.173 67.6383 167.372 67.822 167.626 67.9545C167.879 68.0871 168.169 68.1534 168.495 68.1534Z" fill="white"/>
<circle cx="327" cy="69" r="18" fill="url(#paint5_linear_1_22930)"/>
<path d="M323.646 75L328.469 65.4545V65.375H322.85V63.3636H331.015V65.4034L326.185 75H323.646Z" fill="white"/>
<circle cx="221" cy="69" r="18" fill="url(#paint6_linear_1_22930)"/>
<path d="M216.845 72.9545V71.017L221.703 63.3636H223.374V66.0455H222.385L219.322 70.892V70.983H226.226V72.9545H216.845ZM222.43 75V72.3636L222.476 71.5057V63.3636H224.783V75H222.43Z" fill="white"/>
<circle cx="381" cy="69" r="18" fill="url(#paint7_linear_1_22930)"/>
<path d="M380.998 75.2557C380.021 75.2519 379.18 75.0114 378.475 74.5341C377.774 74.0568 377.235 73.3655 376.856 72.4602C376.481 71.5549 376.295 70.4659 376.299 69.1932C376.299 67.9242 376.487 66.8428 376.862 65.9489C377.24 65.0549 377.78 64.375 378.481 63.9091C379.185 63.4394 380.024 63.2045 380.998 63.2045C381.971 63.2045 382.808 63.4394 383.509 63.9091C384.214 64.3788 384.755 65.0606 385.134 65.9545C385.513 66.8447 385.701 67.9242 385.697 69.1932C385.697 70.4697 385.507 71.5606 385.129 72.4659C384.754 73.3712 384.216 74.0625 383.515 74.5398C382.814 75.017 381.975 75.2557 380.998 75.2557ZM380.998 73.2159C381.665 73.2159 382.197 72.8807 382.594 72.2102C382.992 71.5398 383.189 70.5341 383.185 69.1932C383.185 68.3106 383.094 67.5758 382.913 66.9886C382.735 66.4015 382.481 65.9602 382.151 65.6648C381.826 65.3693 381.441 65.2216 380.998 65.2216C380.335 65.2216 379.805 65.553 379.407 66.2159C379.009 66.8788 378.808 67.8712 378.805 69.1932C378.805 70.0871 378.894 70.8333 379.072 71.4318C379.254 72.0265 379.509 72.4735 379.839 72.7727C380.168 73.0682 380.555 73.2159 380.998 73.2159Z" fill="white"/>
<path d="M61.2908 155H57.9954L63.0167 140.455H66.9798L71.994 155H68.6985L65.055 143.778H64.9414L61.2908 155ZM61.0849 149.283H68.869V151.683H61.0849V149.283Z" fill="#EAECF0"/>
<path d="M59.6529 244V229.455H65.4767C66.5468 229.455 67.4393 229.613 68.1543 229.93C68.8693 230.248 69.4067 230.688 69.7665 231.251C70.1264 231.81 70.3063 232.454 70.3063 233.183C70.3063 233.751 70.1926 234.251 69.9654 234.682C69.7381 235.108 69.4256 235.458 69.0279 235.733C68.6349 236.003 68.1851 236.195 67.6784 236.308V236.45C68.2324 236.474 68.7509 236.63 69.2338 236.919C69.7215 237.208 70.1169 237.613 70.4199 238.134C70.723 238.65 70.8745 239.265 70.8745 239.98C70.8745 240.752 70.6827 241.441 70.2992 242.047C69.9204 242.648 69.3593 243.124 68.6159 243.474C67.8726 243.825 66.9564 244 65.8674 244H59.6529ZM62.7282 241.486H65.2353C66.0923 241.486 66.7173 241.322 67.1103 240.996C67.5033 240.664 67.6998 240.224 67.6998 239.675C67.6998 239.272 67.6027 238.917 67.4086 238.609C67.2144 238.302 66.9374 238.06 66.5776 237.885C66.2225 237.71 65.7987 237.622 65.3063 237.622H62.7282V241.486ZM62.7282 235.541H65.008C65.4294 235.541 65.8034 235.468 66.1301 235.321C66.4616 235.17 66.722 234.956 66.9114 234.682C67.1055 234.407 67.2026 234.078 67.2026 233.695C67.2026 233.169 67.0156 232.745 66.6415 232.423C66.2722 232.101 65.7466 231.94 65.0648 231.94H62.7282V235.541Z" fill="#EAECF0"/>
<rect x="98" y="124" width="301" height="46" fill="url(#paint8_linear_1_22930)"/>
<path d="M119.372 141.205C119.971 141.205 120.546 141.305 121.099 141.506C121.656 141.706 122.152 142.027 122.588 142.466C123.027 142.905 123.374 143.489 123.628 144.216C123.885 144.939 124.016 145.828 124.02 146.881C124.02 147.869 123.908 148.752 123.685 149.528C123.465 150.301 123.149 150.958 122.736 151.5C122.323 152.042 121.825 152.455 121.241 152.739C120.658 153.019 120.007 153.159 119.287 153.159C118.51 153.159 117.825 153.009 117.23 152.71C116.635 152.407 116.156 151.996 115.793 151.477C115.433 150.955 115.215 150.367 115.139 149.716H117.565C117.66 150.14 117.859 150.47 118.162 150.705C118.465 150.936 118.84 151.051 119.287 151.051C120.045 151.051 120.62 150.722 121.014 150.062C121.408 149.4 121.607 148.492 121.611 147.341H121.531C121.357 147.682 121.122 147.975 120.827 148.222C120.531 148.464 120.192 148.652 119.81 148.784C119.431 148.917 119.027 148.983 118.599 148.983C117.914 148.983 117.302 148.822 116.764 148.5C116.226 148.178 115.802 147.735 115.491 147.17C115.181 146.606 115.026 145.962 115.026 145.239C115.022 144.458 115.202 143.763 115.565 143.153C115.929 142.544 116.437 142.066 117.088 141.722C117.743 141.373 118.505 141.201 119.372 141.205ZM119.389 143.136C119.007 143.136 118.666 143.227 118.366 143.409C118.071 143.591 117.836 143.835 117.662 144.142C117.491 144.449 117.408 144.792 117.412 145.17C117.412 145.553 117.495 145.898 117.662 146.205C117.832 146.508 118.063 146.75 118.355 146.932C118.651 147.11 118.988 147.199 119.366 147.199C119.651 147.199 119.914 147.146 120.156 147.04C120.399 146.934 120.609 146.788 120.787 146.602C120.969 146.413 121.111 146.195 121.213 145.949C121.315 145.703 121.366 145.441 121.366 145.165C121.363 144.797 121.276 144.46 121.105 144.153C120.935 143.847 120.7 143.6 120.401 143.415C120.101 143.229 119.764 143.136 119.389 143.136Z" fill="white"/>
<path d="M276.092 141.364V153H273.631V143.699H273.563L270.898 145.369V143.188L273.779 141.364H276.092Z" fill="white"/>
<path d="M171.495 153.159C170.62 153.159 169.842 153.017 169.16 152.733C168.482 152.445 167.95 152.053 167.563 151.557C167.177 151.061 166.984 150.498 166.984 149.869C166.984 149.384 167.094 148.939 167.313 148.534C167.537 148.125 167.84 147.786 168.222 147.517C168.605 147.244 169.033 147.07 169.506 146.994V146.915C168.885 146.79 168.381 146.489 167.995 146.011C167.609 145.53 167.415 144.972 167.415 144.335C167.415 143.733 167.592 143.197 167.944 142.727C168.296 142.254 168.779 141.883 169.393 141.614C170.01 141.341 170.711 141.205 171.495 141.205C172.279 141.205 172.978 141.341 173.592 141.614C174.209 141.886 174.694 142.259 175.046 142.733C175.398 143.203 175.576 143.737 175.58 144.335C175.576 144.975 175.379 145.534 174.989 146.011C174.599 146.489 174.099 146.79 173.489 146.915V146.994C173.955 147.07 174.378 147.244 174.756 147.517C175.139 147.786 175.442 148.125 175.665 148.534C175.893 148.939 176.008 149.384 176.012 149.869C176.008 150.498 175.813 151.061 175.427 151.557C175.04 152.053 174.506 152.445 173.825 152.733C173.147 153.017 172.37 153.159 171.495 153.159ZM171.495 151.352C171.885 151.352 172.226 151.282 172.518 151.142C172.809 150.998 173.037 150.801 173.2 150.551C173.366 150.297 173.45 150.006 173.45 149.676C173.45 149.339 173.364 149.042 173.194 148.784C173.023 148.523 172.792 148.318 172.501 148.17C172.209 148.019 171.874 147.943 171.495 147.943C171.12 147.943 170.785 148.019 170.489 148.17C170.194 148.318 169.961 148.523 169.79 148.784C169.624 149.042 169.54 149.339 169.54 149.676C169.54 150.006 169.622 150.297 169.785 150.551C169.948 150.801 170.177 150.998 170.472 151.142C170.768 151.282 171.109 151.352 171.495 151.352ZM171.495 146.153C171.821 146.153 172.111 146.087 172.364 145.955C172.618 145.822 172.817 145.638 172.961 145.403C173.105 145.169 173.177 144.898 173.177 144.591C173.177 144.288 173.105 144.023 172.961 143.795C172.817 143.564 172.62 143.384 172.37 143.256C172.12 143.123 171.828 143.057 171.495 143.057C171.165 143.057 170.874 143.123 170.62 143.256C170.366 143.384 170.167 143.564 170.023 143.795C169.883 144.023 169.813 144.288 169.813 144.591C169.813 144.898 169.885 145.169 170.029 145.403C170.173 145.638 170.372 145.822 170.626 145.955C170.879 146.087 171.169 146.153 171.495 146.153Z" fill="white"/>
<path d="M320.646 153L325.469 143.455V143.375H319.85V141.364H328.015V143.403L323.185 153H320.646Z" fill="white"/>
<path d="M218.845 150.955V149.017L223.703 141.364H225.374V144.045H224.385L221.322 148.892V148.983H228.226V150.955H218.845ZM224.43 153V150.364L224.476 149.506V141.364H226.783V153H224.43Z" fill="white"/>
<path d="M375.998 153.256C375.021 153.252 374.18 153.011 373.475 152.534C372.774 152.057 372.235 151.366 371.856 150.46C371.481 149.555 371.295 148.466 371.299 147.193C371.299 145.924 371.487 144.843 371.862 143.949C372.24 143.055 372.78 142.375 373.481 141.909C374.185 141.439 375.024 141.205 375.998 141.205C376.971 141.205 377.808 141.439 378.509 141.909C379.214 142.379 379.755 143.061 380.134 143.955C380.513 144.845 380.701 145.924 380.697 147.193C380.697 148.47 380.507 149.561 380.129 150.466C379.754 151.371 379.216 152.062 378.515 152.54C377.814 153.017 376.975 153.256 375.998 153.256ZM375.998 151.216C376.665 151.216 377.197 150.881 377.594 150.21C377.992 149.54 378.189 148.534 378.185 147.193C378.185 146.311 378.094 145.576 377.913 144.989C377.735 144.402 377.481 143.96 377.151 143.665C376.826 143.369 376.441 143.222 375.998 143.222C375.335 143.222 374.805 143.553 374.407 144.216C374.009 144.879 373.808 145.871 373.805 147.193C373.805 148.087 373.894 148.833 374.072 149.432C374.254 150.027 374.509 150.473 374.839 150.773C375.168 151.068 375.555 151.216 375.998 151.216Z" fill="white"/>
<rect x="98.5" y="214.5" width="300" height="45" rx="22.5" fill="#D9D9D9" fill-opacity="0.3" stroke="url(#paint9_linear_1_22930)"/>
<path d="M119.372 231.205C119.971 231.205 120.546 231.305 121.099 231.506C121.656 231.706 122.152 232.027 122.588 232.466C123.027 232.905 123.374 233.489 123.628 234.216C123.885 234.939 124.016 235.828 124.02 236.881C124.02 237.869 123.908 238.752 123.685 239.528C123.465 240.301 123.149 240.958 122.736 241.5C122.323 242.042 121.825 242.455 121.241 242.739C120.658 243.019 120.007 243.159 119.287 243.159C118.51 243.159 117.825 243.009 117.23 242.71C116.635 242.407 116.156 241.996 115.793 241.477C115.433 240.955 115.215 240.367 115.139 239.716H117.565C117.66 240.14 117.859 240.47 118.162 240.705C118.465 240.936 118.84 241.051 119.287 241.051C120.045 241.051 120.62 240.722 121.014 240.062C121.408 239.4 121.607 238.492 121.611 237.341H121.531C121.357 237.682 121.122 237.975 120.827 238.222C120.531 238.464 120.192 238.652 119.81 238.784C119.431 238.917 119.027 238.983 118.599 238.983C117.914 238.983 117.302 238.822 116.764 238.5C116.226 238.178 115.802 237.735 115.491 237.17C115.181 236.606 115.026 235.962 115.026 235.239C115.022 234.458 115.202 233.763 115.565 233.153C115.929 232.544 116.437 232.066 117.088 231.722C117.743 231.373 118.505 231.201 119.372 231.205ZM119.389 233.136C119.007 233.136 118.666 233.227 118.366 233.409C118.071 233.591 117.836 233.835 117.662 234.142C117.491 234.449 117.408 234.792 117.412 235.17C117.412 235.553 117.495 235.898 117.662 236.205C117.832 236.508 118.063 236.75 118.355 236.932C118.651 237.11 118.988 237.199 119.366 237.199C119.651 237.199 119.914 237.146 120.156 237.04C120.399 236.934 120.609 236.788 120.787 236.602C120.969 236.413 121.111 236.195 121.213 235.949C121.315 235.703 121.366 235.441 121.366 235.165C121.363 234.797 121.276 234.46 121.105 234.153C120.935 233.847 120.7 233.6 120.401 233.415C120.101 233.229 119.764 233.136 119.389 233.136Z" fill="white"/>
<path d="M276.092 231.364V243H273.631V233.699H273.563L270.898 235.369V233.188L273.779 231.364H276.092Z" fill="white"/>
<path d="M171.495 243.159C170.62 243.159 169.842 243.017 169.16 242.733C168.482 242.445 167.95 242.053 167.563 241.557C167.177 241.061 166.984 240.498 166.984 239.869C166.984 239.384 167.094 238.939 167.313 238.534C167.537 238.125 167.84 237.786 168.222 237.517C168.605 237.244 169.033 237.07 169.506 236.994V236.915C168.885 236.79 168.381 236.489 167.995 236.011C167.609 235.53 167.415 234.972 167.415 234.335C167.415 233.733 167.592 233.197 167.944 232.727C168.296 232.254 168.779 231.883 169.393 231.614C170.01 231.341 170.711 231.205 171.495 231.205C172.279 231.205 172.978 231.341 173.592 231.614C174.209 231.886 174.694 232.259 175.046 232.733C175.398 233.203 175.576 233.737 175.58 234.335C175.576 234.975 175.379 235.534 174.989 236.011C174.599 236.489 174.099 236.79 173.489 236.915V236.994C173.955 237.07 174.378 237.244 174.756 237.517C175.139 237.786 175.442 238.125 175.665 238.534C175.893 238.939 176.008 239.384 176.012 239.869C176.008 240.498 175.813 241.061 175.427 241.557C175.04 242.053 174.506 242.445 173.825 242.733C173.147 243.017 172.37 243.159 171.495 243.159ZM171.495 241.352C171.885 241.352 172.226 241.282 172.518 241.142C172.809 240.998 173.037 240.801 173.2 240.551C173.366 240.297 173.45 240.006 173.45 239.676C173.45 239.339 173.364 239.042 173.194 238.784C173.023 238.523 172.792 238.318 172.501 238.17C172.209 238.019 171.874 237.943 171.495 237.943C171.12 237.943 170.785 238.019 170.489 238.17C170.194 238.318 169.961 238.523 169.79 238.784C169.624 239.042 169.54 239.339 169.54 239.676C169.54 240.006 169.622 240.297 169.785 240.551C169.948 240.801 170.177 240.998 170.472 241.142C170.768 241.282 171.109 241.352 171.495 241.352ZM171.495 236.153C171.821 236.153 172.111 236.087 172.364 235.955C172.618 235.822 172.817 235.638 172.961 235.403C173.105 235.169 173.177 234.898 173.177 234.591C173.177 234.288 173.105 234.023 172.961 233.795C172.817 233.564 172.62 233.384 172.37 233.256C172.12 233.123 171.828 233.057 171.495 233.057C171.165 233.057 170.874 233.123 170.62 233.256C170.366 233.384 170.167 233.564 170.023 233.795C169.883 234.023 169.813 234.288 169.813 234.591C169.813 234.898 169.885 235.169 170.029 235.403C170.173 235.638 170.372 235.822 170.626 235.955C170.879 236.087 171.169 236.153 171.495 236.153Z" fill="white"/>
<path d="M320.646 243L325.469 233.455V233.375H319.85V231.364H328.015V233.403L323.185 243H320.646Z" fill="white"/>
<path d="M218.845 240.955V239.017L223.703 231.364H225.374V234.045H224.385L221.322 238.892V238.983H228.226V240.955H218.845ZM224.43 243V240.364L224.476 239.506V231.364H226.783V243H224.43Z" fill="white"/>
<path d="M375.998 243.256C375.021 243.252 374.18 243.011 373.475 242.534C372.774 242.057 372.235 241.366 371.856 240.46C371.481 239.555 371.295 238.466 371.299 237.193C371.299 235.924 371.487 234.843 371.862 233.949C372.24 233.055 372.78 232.375 373.481 231.909C374.185 231.439 375.024 231.205 375.998 231.205C376.971 231.205 377.808 231.439 378.509 231.909C379.214 232.379 379.755 233.061 380.134 233.955C380.513 234.845 380.701 235.924 380.697 237.193C380.697 238.47 380.507 239.561 380.129 240.466C379.754 241.371 379.216 242.062 378.515 242.54C377.814 243.017 376.975 243.256 375.998 243.256ZM375.998 241.216C376.665 241.216 377.197 240.881 377.594 240.21C377.992 239.54 378.189 238.534 378.185 237.193C378.185 236.311 378.094 235.576 377.913 234.989C377.735 234.402 377.481 233.96 377.151 233.665C376.826 233.369 376.441 233.222 375.998 233.222C375.335 233.222 374.805 233.553 374.407 234.216C374.009 234.879 373.808 235.871 373.805 237.193C373.805 238.087 373.894 238.833 374.072 239.432C374.254 240.027 374.509 240.473 374.839 240.773C375.168 241.068 375.555 241.216 375.998 241.216Z" fill="white"/>
<defs>
<filter id="filter0_bd_1_22930" x="-17" y="-21" width="480" height="353" filterUnits="userSpaceOnUse" color-interpolation-filters="sRGB">
<feFlood flood-opacity="0" result="BackgroundImageFix"/>
<feGaussianBlur in="BackgroundImageFix" stdDeviation="20"/>
<feComposite in2="SourceAlpha" operator="in" result="effect1_backgroundBlur_1_22930"/>
<feColorMatrix in="SourceAlpha" type="matrix" values="0 0 0 0 0 0 0 0 0 0 0 0 0 0 0 0 0 0 127 0" result="hardAlpha"/>
<feMorphology radius="1" operator="erode" in="SourceAlpha" result="effect2_dropShadow_1_22930"/>
<feOffset dy="4"/>
<feGaussianBlur stdDeviation="12"/>
<feComposite in2="hardAlpha" operator="out"/>
<feColorMatrix type="matrix" values="0 0 0 0 0.0823529 0 0 0 0 0.0941176 0 0 0 0 0.12549 0 0 0 0.2 0"/>
<feBlend mode="normal" in2="effect1_backgroundBlur_1_22930" result="effect2_dropShadow_1_22930"/>
<feBlend mode="normal" in="SourceGraphic" in2="effect2_dropShadow_1_22930" result="shape"/>
</filter>
<linearGradient id="paint0_linear_1_22930" x1="140" y1="19" x2="301.953" y2="295.616" gradientUnits="userSpaceOnUse">
<stop stop-color="#414653" stop-opacity="0.4"/>
<stop offset="1" stop-color="#383D4A" stop-opacity="0.1"/>
</linearGradient>
<linearGradient id="paint1_linear_1_22930" x1="138" y1="19" x2="352.879" y2="294.379" gradientUnits="userSpaceOnUse">
<stop stop-color="#151820" stop-opacity="0.2"/>
<stop offset="0.337074" stop-color="#151820" stop-opacity="0.5"/>
<stop offset="0.659796" stop-color="#151820" stop-opacity="0.5"/>
<stop offset="1" stop-color="#151820" stop-opacity="0"/>
</linearGradient>
<linearGradient id="paint2_linear_1_22930" x1="99.8305" y1="60" x2="140.429" y2="63.6125" gradientUnits="userSpaceOnUse">
<stop stop-color="#9F2DFE"/>
<stop offset="1" stop-color="#3BB2F9"/>
</linearGradient>
<linearGradient id="paint3_linear_1_22930" x1="257.831" y1="60" x2="298.429" y2="63.6125" gradientUnits="userSpaceOnUse">
<stop stop-color="#9F2DFE"/>
<stop offset="1" stop-color="#3BB2F9"/>
</linearGradient>
<linearGradient id="paint4_linear_1_22930" x1="151.831" y1="60" x2="192.429" y2="63.6125" gradientUnits="userSpaceOnUse">
<stop stop-color="#9F2DFE"/>
<stop offset="1" stop-color="#3BB2F9"/>
</linearGradient>
<linearGradient id="paint5_linear_1_22930" x1="310.831" y1="60" x2="351.429" y2="63.6125" gradientUnits="userSpaceOnUse">
<stop stop-color="#9F2DFE"/>
<stop offset="1" stop-color="#3BB2F9"/>
</linearGradient>
<linearGradient id="paint6_linear_1_22930" x1="204.831" y1="60" x2="245.429" y2="63.6125" gradientUnits="userSpaceOnUse">
<stop stop-color="#9F2DFE"/>
<stop offset="1" stop-color="#3BB2F9"/>
</linearGradient>
<linearGradient id="paint7_linear_1_22930" x1="364.831" y1="60" x2="405.429" y2="63.6125" gradientUnits="userSpaceOnUse">
<stop stop-color="#9F2DFE"/>
<stop offset="1" stop-color="#3BB2F9"/>
</linearGradient>
<linearGradient id="paint8_linear_1_22930" x1="113.305" y1="135.5" x2="368.814" y2="284.272" gradientUnits="userSpaceOnUse">
<stop stop-color="#9F2DFE"/>
<stop offset="1" stop-color="#3BB2F9"/>
</linearGradient>
<linearGradient id="paint9_linear_1_22930" x1="113.305" y1="225.5" x2="368.814" y2="374.272" gradientUnits="userSpaceOnUse">
<stop stop-color="#9F2DFE"/>
<stop offset="1" stop-color="#3BB2F9"/>
</linearGradient>
</defs>
</svg>
