<svg width="18" height="13" viewBox="0 0 18 13" fill="none" xmlns="http://www.w3.org/2000/svg">
<path fill-rule="evenodd" clip-rule="evenodd" d="M15.6679 0.786629C16.4022 0.988139 16.9805 1.58189 17.1768 2.33589C17.5335 3.70244 17.5335 6.55374 17.5335 6.55374C17.5335 6.55374 17.5335 9.40495 17.1768 10.7716C16.9805 11.5256 16.4022 12.1193 15.6679 12.321C14.3371 12.6871 9.00013 12.6871 9.00013 12.6871C9.00013 12.6871 3.66321 12.6871 2.3323 12.321C1.59795 12.1193 1.01962 11.5256 0.823354 10.7716C0.466797 9.40495 0.466797 6.55374 0.466797 6.55374C0.466797 6.55374 0.466797 3.70244 0.823354 2.33589C1.01962 1.58189 1.59795 0.988139 2.3323 0.786629C3.66321 0.42041 9.00013 0.42041 9.00013 0.42041C9.00013 0.42041 14.3371 0.42041 15.6679 0.786629ZM7.40015 4.15369V9.48702L11.6668 6.82046L7.40015 4.15369Z" fill="white"/>
</svg>
